/* XPM */
static char *result[] = {
/* columns rows colors chars-per-pixel */
"64 64 245 2 ",
"   c #000000",
".  c #000B00",
"X  c #0C0C0C",
"o  c #051504",
"O  c #19051B",
"+  c #141414",
"@  c #171A16",
"#  c #1D1D1D",
"$  c #002500",
"%  c #003500",
"&  c #0C3000",
"*  c #003B00",
"=  c #1F201F",
"-  c #27142A",
";  c #232323",
":  c #2C202E",
">  c #2B2B2B",
",  c #2B3B28",
"<  c #352B36",
"1  c #333333",
"2  c #39353A",
"3  c #3C3C3B",
"4  c #403F3F",
"5  c #024501",
"6  c #094507",
"7  c #014A00",
"8  c #0C4C02",
"9  c #114E02",
"0  c #154B0A",
"q  c #134D0B",
"w  c #015400",
"e  c #0C5401",
"r  c #015B00",
"t  c #0E5B00",
"y  c #145301",
"u  c #1A5502",
"i  c #125C01",
"p  c #1C5A02",
"a  c #16520C",
"s  c #1C550B",
"d  c #14580E",
"f  c #1D590B",
"g  c #154B13",
"h  c #195414",
"j  c #1B5414",
"k  c #1E5B13",
"l  c #225C04",
"z  c #225C0C",
"x  c #2A5B0F",
"c  c #235717",
"v  c #245D13",
"b  c #245B1B",
"n  c #295C1C",
"m  c #006300",
"M  c #0C6500",
"N  c #016B00",
"B  c #136200",
"V  c #1C6401",
"C  c #116C00",
"Z  c #1D6B00",
"A  c #1E610C",
"S  c #057200",
"D  c #167500",
"F  c #1C7300",
"G  c #1C7B00",
"H  c #236403",
"J  c #296505",
"K  c #246C02",
"L  c #2A6D03",
"P  c #24630C",
"I  c #2A640C",
"U  c #256A0B",
"Y  c #2B6B0C",
"T  c #326D0A",
"R  c #247301",
"E  c #2B7402",
"W  c #267C00",
"Q  c #2B7C00",
"!  c #2E740C",
"~  c #2E790C",
"^  c #337C03",
"/  c #357B07",
"(  c #31770B",
")  c #357C0C",
"_  c #266213",
"`  c #2A6314",
"'  c #266912",
"]  c #2D6A14",
"[  c #26611A",
"{  c #2C641C",
"}  c #2E6A1B",
"|  c #326C14",
" . c #31661D",
".. c #326C1C",
"X. c #2D7314",
"o. c #2D7715",
"O. c #2D751A",
"+. c #337414",
"@. c #3C7616",
"#. c #347A13",
"$. c #3A7D14",
"%. c #34731C",
"&. c #39741C",
"*. c #357A1B",
"=. c #3A7D1C",
"-. c #265D21",
";. c #2A5E23",
":. c #34592C",
">. c #2D6422",
",. c #2E6824",
"<. c #336624",
"1. c #346B22",
"2. c #386D23",
"3. c #356C2A",
"4. c #386A2B",
"5. c #347322",
"6. c #3A7324",
"7. c #377A23",
"8. c #3C7C23",
"9. c #3C742B",
"0. c #3E7B2A",
"q. c #3C6B32",
"w. c #387230",
"e. c #407E1F",
"r. c #42543D",
"t. c #437A27",
"y. c #437C2B",
"u. c #426635",
"i. c #447C33",
"p. c #477B34",
"a. c #3E3740",
"s. c #434343",
"d. c #484847",
"f. c #4B4B4A",
"g. c #4E564E",
"h. c #545554",
"j. c #585758",
"k. c #5A5B5A",
"l. c #506F4C",
"z. c #55794C",
"x. c #567452",
"c. c #5C7957",
"v. c #5B7D54",
"b. c #62795F",
"n. c #636563",
"m. c #6B6A6C",
"M. c #757575",
"N. c #737972",
"B. c #7A7A7A",
"V. c #2D8100",
"C. c #348200",
"Z. c #3A8402",
"A. c #388708",
"S. c #3B830D",
"D. c #3C8314",
"F. c #388416",
"G. c #3D821B",
"H. c #3D8223",
"J. c #3E812A",
"K. c #3F882A",
"L. c #428D0D",
"P. c #438B15",
"I. c #41851D",
"U. c #458B18",
"Y. c #448A1C",
"T. c #4C951C",
"R. c #428524",
"E. c #458A24",
"W. c #498C25",
"Q. c #44842B",
"!. c #49842A",
"~. c #458A2A",
"^. c #4A8D2B",
"/. c #4B9523",
"(. c #4C9124",
"). c #4D922B",
"_. c #51952C",
"`. c #549A2B",
"'. c #4C8433",
"]. c #4A8637",
"[. c #4B8C34",
"{. c #548D39",
"}. c #4E9333",
"|. c #529433",
" X c #569A31",
".X c #589839",
"XX c #5DA232",
"oX c #65AB3F",
"OX c #538D41",
"+X c #58884A",
"@X c #5C8353",
"#X c #5E8A52",
"$X c #5F8359",
"%X c #628C55",
"&X c #62875A",
"*X c #649255",
"=X c #679954",
"-X c #659459",
";X c #68955D",
":X c #6B9C5C",
">X c #6DA25C",
",X c #75A95E",
"<X c #73916C",
"1X c #7BAA6C",
"2X c #818D7F",
"3X c #80A375",
"4X c #838383",
"5X c #878787",
"6X c #8B8C8B",
"7X c #899886",
"8X c #8F9390",
"9X c #929292",
"0X c #959C95",
"qX c #9B9B9B",
"wX c #8CA487",
"eX c #99A896",
"rX c #9DA29D",
"tX c #A3B29F",
"yX c #A2A2A2",
"uX c #A3ADA2",
"iX c #ADADAD",
"pX c #A6B3A4",
"aX c #ADB4AC",
"sX c #B3B4B4",
"dX c #B4BBB4",
"fX c #B7BBB8",
"gX c #BBBCBC",
"hX c #BDC3BD",
"jX c #C0C7BE",
"kX c #BFC0C0",
"lX c #C4C4C4",
"zX c #C6C8C7",
"xX c #C7C7C8",
"cX c #C7C8C9",
"vX c #CBCBCC",
"bX c #CECED0",
"nX c #D0D1D1",
"mX c #D3D3D3",
"MX c #D7D6D8",
"NX c #DBDBDB",
"BX c #E4E4E4",
"VX c #E8E7E8",
"CX c #EBEBEB",
"ZX c #F3F3F3",
"AX c #FBFBFB",
/* pixels */
"I.@.4.n a >.&.Y l } 1.p.'.2.n v 5.5.a >.0.R.p.y. .{ 1.2.t.&.c v ^ T.[.0.=.I.Y.U.#.~.~.!._.^.~.6.*.E..X~.P.I.!..X!.R.I.!..X{.S.-X",
".Xe.h h k v J | | z y x | .. .9 y ' b s %.=.@.l I _ x l &.=.s l E ^ [.J.Z #.T.^ G.F.#.! I.(.Q.8.Z o.|.H.Y.(.E ^ P.$./ P.R.R.^ #X",
".Xt.h 5 z ..{ P ] Y s 9 l | { 0 f ..` l } %._ z H p 0 z I | f y +.R.~.I.E P.W.W.Q.H &.*.Z.P.e.R.G.G.#.W._.(.G.) @.W.Y.^ $.^.A.*X",
"e.+.c % y ` v } | I >.1.J &.>.j P _ ` z ' P u z I &.c z P _ { x %.~.G.^ I.E.P.Y.H.=.Q.~.A.L.R.~.G.Y.}.|.G.C G.W.E ). XE ( R.P.:X",
"J T >.6 p ' a 1.%.y j 0.@.| 9.-.e _ { s p +.0 9 1.0. .x  .{  .x p %._.) I ~.(.P.R.~.H.H.(.Y.(.Y.S.Z ).^.K ~ R.W.$.G.W.Y.#.X.Q =X",
"| J { b P ] [ >.} f u 6.8.H >.c u }  .v ] 6.u 9  .} l x v s u 0 _ H ).I.e ' S.D.^.R.+.*. X(./ W.D.H ! =.D./ $.#.G.#.D.D.~ +.R *X",
"t.J  .v z z } .._ v p  .6.l a a ` 1.z u 2.} l ] P { b s u l z 9 %.H.=.( i _ Y C Y.`.#.~ I.$.( ~.(.I.V G.).K V E ~.W._.Y.i R.Z.*X",
"| J v 9 f } ] f u v p } | H v y x v 8 } { 7 u | f s { n 2.p.u.g %.Q.=.8.,.1.8.K P.XXW.#.K H E ^.).F.~ ^.E.E G.~.G.R. X X( *.V.=X",
"'.&.v v a v &.p 8 P u ` } ] P u l u n { l ` p f n :.1.H 7 w m w r S.Z.S N ^ 2.%.U.XX).=.W.G.i J.R.S.G.}.).Y.H.}.R.R /  X^.R./.,X",
"|.&.e b _ _ 6...y } _ f ..} I u ] 6.9.k u &.3.c w w r z.<XrXaXgXhXhXhXaXtXv.w ,.P.`.~.#.=.[.H.*.W.G.=.E.).).Z =.|.G.S._.G.R./.=X",
"y.T y >.1._ } ..K +.s k 6.&.+.I _ 5.=.J s ;.B * l.eXlXMXBXNXNXNXNXNXNXMXNXkX> , u.'._.#.* 5.^.E E #.^.G.) I.Z E ^.=./ ).I.=.Z.%X",
"!.J [ >.f y _ _ T =.c q 9.t.Y 6.2.s H  .u % b.dXNXBXBXNXNXNXNXMXmXmXNXmXvXbX4X    < r.4.` U +.e.#.G.=.#.W.(.S.G.E.t Z Y.R.=.R %X",
"{.| 9 n } u { { | +.>.k U I I y.3.8 } N ..7XMXBXNXNXNXNXNXNXMXNXBXNXnXzXzXvXvXaXB.1 O 2 r.4.P.I.I.G.X.o.E.E.S.G.Y.#.D.^ &.{.Z.#X",
"t.I z  .] z { 1.&.i c 9.6.%.&.%.1.n w <XMXMXBXVXVXVXVXCXCXZXZXCXNXnXmXNXNXNXmXNXmXgX6Xs.O 2 u.!.^.#.o.o.S.D.(.}.). X_.^ +.{.Z.@X",
" .z {  .x z { [ z y _ 5.0.!.| _ 2.5 eXBXVXNXlXsXqX8X5X6X8XqXiXmXBXVXVXNXNXmXmXmXmXMXmXfXM.  - :.Q.K.*.M Z R F.H.E.W.I.W.R...H %X",
"i.x 9 x _ a { _ u u ` 9. . .p 2.m pXBXBXCXyX                  vXZXVXVXBXNXNXNXmXmXbXvXmXvXqXX   o N o.*.R R F.E E / L ).[.] B %X",
"t.l { { _ p { ..] I y  ...p n w pXVXNXCXfX  s.d.s.4 3 3 2 4   xXZXVXCXVXNXNXNXNXmXmXmXnXvXnXiXk.m.N.9.^ !.8.^.|.#.V R.R.G.R.D %X",
"t.l g g z  .} _ | .._ ..| 4.7 0XVXBXVXMX> 2 3 1 1 > > > ; 1   gXAXCXCXVXBXNXNXNXMXmXmXvXvXvXvXsXlXcXaXR #.t.Q..X[.! G.E.R.}.C.@X",
"t.l $ % 8  .&.p z _ 6.8.3.r <XBXBXBXCX4X  4 1 1 > > > ; = 1   iXAXCXCXVXBXNXNXNXMXMXmXmXbXvXvXfXfXlXvXeXN ] E !.R.G.F.~.H.=.C.#X",
"t.| 4.-.k _ | %.s 7 Y &.P z vXBXNXCXlX  3 1 > > > ; ; ; = >   0XAXCXCXVXBXNXBXNXMXMXmXmXmXvXvXkXsXlXlXcX3XQ &.Y i E.H.+.R.H.Z @X",
"6. .q.3.c a ..!.{ 7 y 1.w uXVXBXVXVXN.  2 > > ; ; = = # = >   B.ZXVXVXVXBXNXBXNXNXMXmXmXmXvXvXlXsXlXkXxXgXy.P.=.@.E.D.^ D.G.M ;X",
"` * 6 -.k e ] ] { v q i @XNXBXBXCXvX  2 > ; ; ; = = = - = >   k.VXCXVXVXBXBXNXNXNXNXMXmXmXvXvXcXsXxXlXlXvX0XW !.I.( L S.Y.R.E 1X",
"t.9 * -.{ {  .v p z >.m aXVXBXBXCXB.  1 ; ; = = = = = # ; >   > NXZXCXVXBXBXBXNXNXNXMXmXmXvXvXlXsXxXkXkXzXhX{.I.W.^ K F.H.}.Z.:X",
"6.I b <.{ v v { v ] Y z.mXBXBXNXNXyX  > ; = = = = # @ 1 X = 6XvXNXNXCXCXVXBXBXNXNXNXMXMXmXmXvXvXgXxXkXxXlXvXwXV.E.U.Y.H.=.=.C z.",
"&.| h -. .v s z u <.w wXBXBXMXMXCXZXiX  ; > # # # > s.f.8XMXZXAXZXNXmXNXVXVXBXNXNXNXMXmXmXMXmXsXqXbXkXlXlXzXhXC.( !.).G.S.).E @X",
"y.I g g { z s z y <.7 uXVXMXNXVXCXCXAXgX  # > > # @ 4XbXAXAXZXZXZXZXCXNXnXmXBXBXNXMXNXNXbXiXM.;   yXvXkXzXzXkX*XC ] G.G.D.).C.;X",
"y.l h b k 5 9 l 8 <.w qXNXMXVXVXCXZXZXAXvX      # sXZXAXAXZXZXZXCXCXCXCXVXmXzXmXNXBXvXyXm.; # > =   sXzXkXzXvX7XN ] Q G.~.Q.F -X",
"'.] d 3.<.5 l u 0 3.u n.mXBXBXVXCXZXZXZXAXMX1 n.MXAXAXAXAXZXZXZXZXCXCXCXVXVXNXnXlX8Xk.M.M.j.d.1 >   k.kXlXzXvXuXG G.Q D.^.8.r %X",
"R.J 7 >.>.f ] I v i.l m.BXNXBXCXZXZXZXZXZXAXNXVXAXAXAXZXAXZXZXZXZXCXCXVXBXBXBXVXbX@ M.B.h.d.1 > ; >   9XcXlXbXdXV.K.o.F G.^.Q %X",
"=.#.1.[ { [ l l s q.* 9XBXBXVXCXZXCXZXZXZXAXCXZXAXZXAXAXAXZXZXZXZXCXCXVXVXBXBXCXvXd.k.g.d.3 > > ; # X 1 gXxXcXkX7.O.*.U E Q.U.*X",
"t.+.} 3.I ` z p _ { . qXBXNXBXCXCXZXZXZXZXAXCXCXAXZXZXZXZXZXCXZXCXCXCXVXBXBXNXBXlX2 f.f.3 > ; ; # # >   8XbXcXlXOXD ~.G.#.%.^ #X",
"( H d k P ] _ z | <.. yXBXNXBXVXCXZXCXZXZXAXVXCXZXZXZXZXZXZXZXCXCXCXVXVXBXBXNXBXlX2 4 3 > > # # # # ;   f.lXcXkXOXW ~.H.G.8.F #X",
"%._ k w k k p | ] >.o yXBXNXBXBXCXCXCXZXZXZXBXCXZXZXZXZXZXZXCXCXCXVXBXBXBXBXNXBXzX1 1 1 > ; # # # @ # # @ aXlXfX{.) Y ! G.H.V.=X",
"5.A k k } } ` ..P [ o qXBXNXNXBXVXVXCXCXCXZXVXVXZXCXCXCXCXCXCXCXVXVXBXBXBXNXNXNXlX1 > > > ; # # # # ;   h.cXvXlXOXC.Y Z F.H.V.>X",
"9.1...I ,.0.6...v <.$ 6XNXMXNXBXBXBXVXVXVXCXVXVXZXCXCXCXCXCXVXVXVXBXBXBXBXNXNXNXzX1 > < > ; = # # # >   8XbXvXhX5.8.).S.G.K.V.>X",
"_ ....H _ A _ P z n & M.NXMXNXNXNXBXBXVXVXCXBXVXZXCXCXCXVXVXVXVXBXBXBXBXNXNXNXNXlX> ; 1 > ; = # # # # + fXvXbXdXQ Q.W.Y./.}.V.*X",
"_ P ..5.&.u 5 f [ { 9 j.mXmXNXNXNXBXBXBXBXCXBXNXCXVXVXVXVXVXBXBXBXBXNXNXNXNXNXmXlX1 > 1 > ; ; # # ;   M.bXxXbXtXS Q.E F.T.T.V.>X",
"1.u v } | l 9 x { v <., lXNXMXNXNXNXBXNXNXVXBXNXCXBXBXBXBXBXBXBXNXBXNXNXNXNXmXNXgX  ; 4 1 > ; # # ;   aXvXxXbX7Xr 5.=.#.A.T.D >X",
"5.z _ I { } J | |  .w n.lXnXNXMXMXNXNXNXNXCXlXiXBXBXBXBXBXBXNXBXNXBXNXNXNXmXNXnXgXB.=     > < ; >   M.vXvXvXvX+Xm 5.J.o.V.K.V.=X",
"2.p z 2._ v | | I q.7 <XmXlXnXNXNXNXNXNXBXsX    5XvXBXBXNXBXNXNXNXNXNXNXMXMXnXvXmXmXgX9Xk.    X   > gXvXxXbXdXW 7.' O.H.o.K.V.#X",
"'.u q k P p u ` _ ..p q.xXmXlXvXMXmXNXNX9X    =   > qXbXBXNXNXNXNXmXNXMXmXnXMXNXnXvXvXvXlXiX2Xn.3 iXvXcXzXbXwXm _.P.E ^.U./ m @X",
" .p _ { 5.6._ p 5...n 7 rXmXnXlXvXNXvXm.  = @   #     s.rXnXNXNXMXNXnXvXmXBXNXnXvXvXzXlXlXlXvXlXdXbXcXvXbXlX].R (.(.) E.`. X) &X",
"b d i 5.i.3.} 8 _ } v i z.cXnXvXcXaX3   : + X X X X #     f.rXvXmXjXjXNXBXmXvXvXvXvXlXlXlXkXlXxXgXvXvXcXmXeXV.J.#.7.I.D.G.^.Z $X",
"w.[ e P } } 5.v u 1.] 3.N eXmXvXmXyX  1 @ @ @ @ + X X + =     f.aXvXNXNXvXvXvXvXzXlXlXlXlXlXlXlXfXvXzXbXkXK.E =.%.O.I.W.D.A 7 @X",
"9.} I ..%.y.9.k v { H T &.6.gXbXvXbXm.  > ; # # @ + + + X @ ;   dXNXnXvXvXvXvXlXlXlXlXhXlXlXlXlXgXbXcXbX1XF t.G.F.+.~.).(.#.Q >X",
"9.p p Y ] &.1.7 v  .p | t.w b.cXvXbXsXX 1 > ; ; = # # + + @   = gXnXvXvXzXzXlXlXlXlXlXlXlXlXxXlXkXcXmXuXN R._.~.=.=.R.#.W.).V.:X",
"{.] u l l u v a z 2.I _ ..c % 7XvXlXbX5X+ r.1 > > ; ; = # #   1 gXvXxXzXzXxXlXlXlXlXlXlXlXlXvXlXkXmXfX' X.=.I.E.G.~.R.K =.|.Q %X",
"p.| x u 5 s 6._ 5  ...z 2.x g w eXvXxXkXh.s.s.2 1 1 > > ; ;   4 kXvXxXlXlXlXlXlXlXlXlXlXlXvXnXsXsXsXOXr %.#.S.D.G.^.G.R =.).T.,X",
"&.e h j % s 2.c 0 c b a ` 8.1.v w eXxXxXiX4 f.f.s.4 2 1 1 > X f.kXlXlXlXkXlXlXlXlXlXxXxXcXbXiXa., V.D d r Z D.Y.D.G.~.#.Q.Q.C.:X",
"y.e j j 6 6 u z c g q g u ..i.0.v 7 7XlXvXqXd.d.f.f.d.4 3 3 @ h.kXlXkXlXlXlXlXlXxXxXlXbXbXqXO g G.F.7.J.H.~ D./.G.G.R.G.~.[.F *X",
"'.H f _ z u j ;.T L n h 7 5 P !.6.{ w &XsXvXyX2Xm.j.d.4 1 1 # n.gXlXlXlXlXlXlXxXxXvXbXfXm.  q.5.A.}.[.J.}.~.G. X).#.~ E Q ^.Q #X",
"Q.U p 3.<. .c <.t.T { h z 8 u =.2.v <.w <.5XfXbXkXsXsXiXiXiXsXfXfXsXkXlXxXxXcXbXvXgX5X: & u.K.5.~ }.[.r X.^.R.^.}.W.#.~ / W.D.:X",
"0.y a ,.2.5.` l 1.>.[ 1.Y l z z v x y <.v 5 z.uXlXvXvXcXcXzXlXlXlXkXgXfXfXkXkXyXM.: $ q.G.R U Z o.J.~.H.%.Y ~ =.H.).~.E Z.Y.W :X",
"].V h -.z ] ` u 8 j v ` J Y } c v z u &.{ c r r l.7XaXkXvXvXvXvXvXvXbXvXvXbX8X  x p.y.#.G.~.*.M Z Z U G.J.7.L E R E.H.R D.~ N -X",
"].H h -.5 c 6.x 9 9 8 k k 1.9.[ v z _ 9.n 5 v 3.H w 7 l.<X0XrXaXdXdXsXiXeXwX2.f =. XR.V 7.}.=.V Y Y p ' 7.5.#.K ! ^.*.C ).H.S -X",
"i.A h k q 0 l n <.n a >._ _ 1.{ 0 6 u v v } 4.t.] b v w w m r w m ^ D.G m D #.#.E W.t.U ' _ E G.H.Y H %.O.V #.#.G.~.H.o.*.H.D #X",
"w.[ a f ..s * ;.2.6.v y z z h >.0 5 6 j 9 _ 2.{ 8 x  .v n 3.i.y.5.&.[.[.%.5.U G.$.P.&.0.' 7 =.~.=.V U 8.X.Z =.R.#.#.H.o.r J.A.*X",
",.k _ u | x g g  .6.0 5 6...* q c j j >.p x 2.v 5 _ 6.1.{ s { 5.+.Y ~. X[.H.#.E.Y.( T !.].} U ] @.8.&.=.~.H.! =.=.H o.*.O.5.V.>X",
"5.B j h u | ..z P _ 6 5 | &.y 5 0 b >.n 8 v v z v z 6.t.} z I z i U D.oX.XO.H.^.^.$.H H H.~.A i 0.^.L #. XY.t t X.] G.R.5.O.N @X",
"{.V 7 { x z 6.6.y s ` _ J t.3.a a j -.{ v x 5 z v u .. .v { P y i 5.Y.`.O.M R H.E.~.%.p K H.] i 5.*.Z  X XS.X.P U U ) Y.V ] R z.",
"i._ ' ] I y 2.u.b j ` ..8.t.{ [ v s { {  .{ z u s s s z v } x x w 5.W.I.' o.O.G.I.W.!.=.=.G.U i B X./ W.T.E ..H V X.K G.*.A R %X",
"{ [ 6... . .<.<.;.-.v } ..] c -.n n n n c 2.p.3.;.n 6 g c <.2.>.k } ( X.O.5.K.=.=.@.8.'.}..X].] ..0.G.E #.=.%.5.' 8.&.+.J.,.w &X",
"H w * i p B e $ * w 7 % 7 w 7 7 7 r r 7 7 7 H J i 5 % * 5 w t w m Q W m D F R C.Z.S r K K R C.W D F.C.m m G D S.C.F / r C ^ D +X",
";Xx.l.$X&Xc.x.g.x.&Xc.l.x.v.x.x.v.v.@X@X$Xx.l.c.$Xx.x.b.&Xx.x.x.v.:X,X$X;X:X-X>X:X=X%X%X-X@X#X:X;X:X>X*X;X;X@X-X:X#X:X;X-X;X=X1X"
};
