/* XPM */
static char *result[] = {
/* columns rows colors chars-per-pixel */
"64 64 241 2 ",
"   c black",
".  c #001300",
"X  c #001D00",
"o  c #002800",
"O  c #003300",
"+  c #003B00",
"@  c #014400",
"#  c #0A4606",
"$  c #004C00",
"%  c #0C4C02",
"&  c #124E02",
"*  c #134C0C",
"=  c #184B0A",
"-  c #015400",
";  c #0B5401",
":  c #005B00",
">  c #0C5A00",
",  c #145301",
"<  c #1A5502",
"1  c #135C01",
"2  c #1B5B02",
"3  c #16520C",
"4  c #1C550B",
"5  c #16590C",
"6  c #1D590A",
"7  c #194C14",
"8  c #1B5413",
"9  c #195415",
"0  c #1E5C13",
"q  c #204E0F",
"w  c #225D03",
"e  c #23580B",
"r  c #225C0C",
"t  c #234E18",
"y  c #235413",
"u  c #245D13",
"i  c #2A5C15",
"p  c #24531B",
"a  c #29551D",
"s  c #245B1B",
"d  c #2B5B1C",
"f  c #305E1E",
"g  c #006300",
"h  c #0C6500",
"j  c #006C00",
"k  c #146300",
"l  c #1D6401",
"z  c #136B00",
"x  c #1C6B00",
"c  c #1E620B",
"v  c #007300",
"b  c #087A00",
"n  c #1C7300",
"m  c #187A00",
"M  c #236403",
"N  c #2A6505",
"B  c #246C01",
"V  c #2A6D02",
"C  c #25630C",
"Z  c #2A640C",
"A  c #26690C",
"S  c #2B6B0B",
"D  c #326D09",
"F  c #247301",
"G  c #2C7402",
"H  c #257C00",
"J  c #2C7C00",
"K  c #26710E",
"L  c #2D740B",
"P  c #2E790C",
"I  c #317502",
"U  c #347C03",
"Y  c #31760C",
"T  c #347B0C",
"R  c #387D08",
"E  c #256314",
"W  c #2A6414",
"Q  c #266A11",
"!  c #2C6B14",
"~  c #26611A",
"^  c #2C641C",
"/  c #2E6A1B",
"(  c #326C14",
")  c #32641C",
"_  c #356919",
"`  c #336C1C",
"'  c #2C7613",
"]  c #2D7314",
"[  c #2E731A",
"{  c #337413",
"}  c #3B7516",
"|  c #357A13",
" . c #3A7D14",
".. c #33731B",
"X. c #3A741C",
"o. c #357B1A",
"O. c #3A7D1C",
"+. c #2E4D2C",
"@. c #2A5522",
"#. c #2A5726",
"$. c #275C21",
"%. c #2C5C23",
"&. c #325D24",
"*. c #325B2A",
"=. c #3A5D2F",
"-. c #395B32",
";. c #2C6322",
":. c #2D6824",
">. c #336424",
",. c #396624",
"<. c #346B22",
"1. c #3A6C25",
"2. c #356329",
"3. c #3A642C",
"4. c #356B2A",
"5. c #3B6B2B",
"6. c #357322",
"7. c #367725",
"8. c #3B7324",
"9. c #3C7C23",
"0. c #3C732B",
"q. c #3D7B2A",
"w. c #3E6333",
"e. c #3C6B31",
"r. c #3C7231",
"t. c #417C1F",
"y. c #415F3C",
"u. c #416E2E",
"i. c #417B24",
"p. c #41762B",
"a. c #437B2B",
"s. c #487D2E",
"d. c #426D33",
"f. c #456A39",
"g. c #437433",
"h. c #457B32",
"j. c #4B7D35",
"k. c #4A753D",
"l. c #497838",
"z. c #517E3B",
"x. c #50714A",
"c. c #546C52",
"v. c #567452",
"b. c #5A7755",
"n. c #5B7D54",
"m. c #606C5F",
"M. c #61795D",
"N. c #238400",
"B. c #2C8300",
"V. c #338200",
"C. c #3A8402",
"Z. c #3A8807",
"A. c #3B830D",
"S. c #3F9500",
"D. c #3C8214",
"F. c #368218",
"G. c #3D821C",
"H. c #3D8223",
"J. c #3E822A",
"K. c #42890E",
"L. c #448B15",
"P. c #41851D",
"I. c #458B18",
"U. c #448A1C",
"Y. c #4C951C",
"T. c #428424",
"R. c #488725",
"E. c #458A24",
"W. c #498C25",
"Q. c #44842A",
"!. c #4A832B",
"~. c #468A2A",
"^. c #4A8C2B",
"/. c #4B9523",
"(. c #4B9124",
"). c #4D922B",
"_. c #539827",
"`. c #51952D",
"'. c #54992C",
"]. c #4B8433",
"[. c #4A8536",
"{. c #4B8C34",
"}. c #53893A",
"|. c #4E9234",
" X c #519333",
".X c #569A32",
"XX c #58983A",
"oX c #5DA232",
"OX c #65AB3F",
"+X c #4F8140",
"@X c #5B854C",
"#X c #5C9941",
"$X c #5D8353",
"%X c #5E8A52",
"&X c #5F8359",
"*X c #628C55",
"=X c #628659",
"-X c #649255",
";X c #679954",
":X c #659459",
">X c #69955C",
",X c #6B9C5C",
"<X c #6DA25C",
"1X c #75A95E",
"2X c #6D8767",
"3X c #73966A",
"4X c #75996A",
"5X c #798877",
"6X c #7BAA6C",
"7X c #808B7E",
"8X c #82967D",
"9X c #889585",
"0X c #899C84",
"qX c #8B9489",
"wX c #8D9B8A",
"eX c #909D8D",
"rX c #959E93",
"tX c #8CA386",
"yX c #8EA38A",
"uX c #8FA988",
"iX c #92A28D",
"pX c #93AB8C",
"aX c #96A393",
"sX c #99A597",
"dX c #9AA897",
"fX c #A1AF9C",
"gX c #A5AEA2",
"hX c #A9AFA7",
"jX c #ABB5A8",
"kX c #ADB4AC",
"lX c #B0B6AE",
"zX c #B1B9AE",
"xX c #B4B8B3",
"cX c #B4BCB2",
"vX c #B7C1B3",
"bX c #B9C5B4",
"nX c #C5C9C3",
"mX c #C6C9C4",
"MX c #CACEC9",
"NX c #D0D1CF",
"BX c #D6D7D6",
/* pixels */
"P.} 5.a 3 ;.X.S w ^ <.j.].` d i 6.6.8 %.9.T.].s.W ~ <.,.i.X.s y U Y.{.q.O.P.U.U.| ^.~.^.).^.~.7.o.T.XX~.D.U.!.XXW.R.T.W.#X|.A.:X",
"XXt.3 9 0 u N ( _ M , u _ ` ^ , , A s 6 { 9.( N W E u w X.O.< r F C.|.J.l T Y.U  .o.{ Y U.W.Q.7.x |  XH.U.(.G I P.R U L.T.9.V.%X",
"XXi.8 # r <.^ E ! ! e % w ( ;.% 6 <.W 2 / ` W e M 2 6 e C ` e , { T.Q.P.U D.W.W.T.B o.o.C.I.P.T.D.D.| ~.`.(.P.T  .W.W.I  .W.Z.-X",
"t.{ s + , Z u / ! N ;.<.N X.>.8 r E ! r Q C < r A ..s e C Z ^ i ..~.G.U U.W.D.U.J.9.Q.E.K.C.T.~.E.P.|..XG.x F.W.I ^.'.I ' T.L.,X",
"N N ~ % r Q 4 :.` , 4 q.} { 5.$.; E ) 6 l ..= & ` i._ i ) ^ ) E c ..`.T A ~.(.L.T.~.J.9.(.U.).U.T x {.W.B Y E.E.G.F.(.U.| ] J ,X",
"} N ;.u C ! ~ ^ / 6 4 6.9.M ;.s , ! ) u ! 8.< & <./ w r y 6 < & c M (.U.; Q A.D.).G.] O..XY.R U.D.B Y F.D.R  .{ P. .D.D.Y { n -X",
"8.N ^ s r r / ` E E 6 _ 8.w 3 3 W 1.e < ` / w Z r ^ s 4 2 w y & ..H. .Y 5 E S z U.'.| L P. .Y ~.).P.l H.).B k G T.W.`.P.1 O.C.-X",
"_ N u ; 4 / ! 6 < r 2 / ( M u , u E % ^ / @ , ( e 4 %.s ( i.,.@ ! T.| { Q / 9.B I.oXW.| V x S ^.W.D.P W.E.J G.~.G.T..X.XY O.B.;X",
"!.X.u E , u X.2 % E < W / ! C < w < ^ ;.w Z 6 6 y s ` ` i <.8.i A Q.W.| Y } <.6.U.oX). .~.F.1 T.~. .F.|.).U.T.|.E.B Y '.W.E.Y.1X",
"}.X.; ~ ~ ~ 8.` , / E 6 ` / A < ! 8.4.0 < 8.<.; y >.W C & @ y W 2 |.XXM P.P.E Q I.'.~.| O.).J.o.E.P. .E.`./.l 9. XG.D.`.G.Q./.;X",
"!.D * ~ ` W / / B { 4 0 8.X.{ Z ~ 8.O.N < p / , w r ~ <.;.= & < ; i.W.I P.t. .} Q.^.).O.+ 7.W.L G  .~.G.R D.x F W.F.U ).T.O.C.*X",
"!.M ~ ;.6 , E E D O.y * 8.a.S 8.<.< M M e & E 6 , @ @ 0.g.4 , & 6 { B  .O.Y T.R.W.T.F.{ E Z { G.| F.o.o.(.).A.G.~.> B U.T.O.F *X",
"XX( & i ! < ^ ^ ( { ~ s Z Z N a.7.% M { W 3 5 0 r e 2 6.*.* r 2 c O.Y G.Q M Y.I.Q.q.V O.8...G.U.U.O.] | H./.A.G.E.Y L.U }  XV.*X",
"u.Z e ^ _ 6 ^ <.X.1 u r.8...8.6.` 6 M S ` <.0 ~ ,.1.[ Q # $.` Z A o.P.P.! ! I A.T.! V ( 9.a.T.W.^.| ' ' A.D.).|.)..X`.I { }.C.$X",
") 6 ) ` i r ^ ~ 6 < E 6.q.!.! C ) 2 2 M ) 0.6.6.>.i , , i i ^ 8...{ G.T.^.[ 1 ! C.K.( > (.`.a...H.H.o.h x F G.G.E.W.P.W.Q.` x *X",
"h.i % E E < ^ ~ < , W 8.) / 2 _ 6.Z A ! # & c W ) q o 0 E < ^ ` ! x | ~. X~.! ..K.W.Q.1 K._.[...o.O.o.[ F n A.G G T V ).^.! k *X",
"a.w ~ ;.~ < ! <.! C , / ) < < W N V ^ ~ , 6 6 E 4 s ^ ^ 4 & Z { A l O.o.| T./ E | ~.J.A Y W.W.| F.E.B G.T.i.^. X| l P.E.G.T.z *X",
"i.w 7 * 6 ` / ^ 1.0.>.0.0.1.;.>.8.i.4.@.>.r.g.,.7 2.g.d 2.@.) 8.<.<.{.Q.Q 7.r.s ! J.{.J.~.Q.~.G.[ ^.J.6.q.a.{.#X XP G.E.T.|.V.%X",
"i.w o O % / 8.- @ $ g j - $ + $ - - : - + + : - X @ - @ - + @ $ : g v v g - g j g $ v N.b v N.N.j H N.: g - : H J 9.F.Q.G.9.C.%X",
"s._ 2.;.0 ^ k 8XkXlXcXcXcXcXxXcXcXcXcXvXxXxXxXcXcXcXcXcXxXcXcXxXcXcXvXcXcXcXcXvXvXxXvXvXvXvXbXbXvXvXbXcXbXcXcXzX2XJ !.| T.T.z @X",
"8.<.e.4.$.@ 2XBXBXxXkXlXkXkXkXzXkXlXlXlXkXkXkXkXlXxXkXhXkXzXzXzXkXzXzXzXzXzXzXzXkXcXzXkXzXzXkXkXkXzXkXkXcXkXcXBXNX:XV.T D.G.h >X",
"i @ # 0 %.O dXmX9XsX  $ - @ - $ + @ $ + X @ - O @ $ O . O @ - - + : g $ - l G x $ h g $ B I - @ z g @ $ M $ aXaXMXyXg P.U.T.G 6X",
"p.% @ #.4.$ dXnX&.lXw.f.w.w.w.=.-.-.+.-.f.f.f.-.=.f.3.=.+.+.f.=.d.k.z.g.k.g.z.}.f.k.z.g.j.z.d.3.x.k.l.z.l.u.zX@XMXtX: J.H.|.C.,X",
"0.N s 2.2.@ sXnXw kXx.>.5.2.d p ,.d.a p ) e = d &.,.1.i $.*.3.) 1.s.!.X.W _ } t.p.8.j.s.D } [.0.W 8.i.1.w @XzXj.mXuXm ^.F.o.h n.",
"X./ 9 $.4.@ aXmX+ hXM.6 5.5.2.4 ,.f.2.q a %.t @.$.%.2.,.5.2.1.1.h.s.W ( } t.` ` 1.i.X.D W a.#X#X6.0.1.i B 4XjXI MXpXB.T.D.W.G $X",
"a.N * 9 2.@ sXmXO sX9X@ a 3.3.y f ,.f y &.5.&.a p t &.5.,.,.f d ) a.8.X.!.!.p.i W i.s.a.p.` p.Q.` ,.p.5.: 0XfXx MX0Xv ~.D.).V.,X",
"a.M 9 s %.. rXnXX wXaX$ *.3.>.y t t f 1.3.2.,.y y ,.e.2.) 1.&.%.s 1.[.a.i.[.l.4.i.t.r.j.i./ s 3 W 1.p.u.$ aXtXg MX0Xj ~.~.~.x :X",
"].Q 3 4.e.X sXnXO 5XgX$ *.&.a >.*.a e u.w.d >.y d g.d.7 e 1.2.%.4.5.) / X.Q.h.>.O.! 9 :.W 8.q.l.a.].].j.l hX2XB MXuXj G.^.9.: *X",
"T.N $ ;.4.@ sXmX@ 2XkXw &.a d d 1.,.q i ,.) a 7 7 $.,.,.d ,.,.i W X.t.t.a.8.0.<.^ >...i.8.8.i.i.i.a.p.].].zX@XV MXuXj / G.~.J *X",
"H.{ <.~ 2.$ aXnX@ k.lXf.d &.a i f ,.d &.) ^ %.$.$.p ) p.,.i ) ` _ i.s.i.].i.6.1.i ^ 8.].].0.X.! ) 6.h.Y =XjXt.} MXyXj [ G Q.I.-X",
"t.Y :.4.>.- sXnX> < hXM.; p t =.&.i i 1.u.) 2.e.e.a s ,.1.) ) ,.1.j.p.8.j.].p.` 8 a ) s.8.` p.1.( _ ].g 5XfXx q.MXtXb J.| ..U %X",
"{ M 5 0 ^ - sXnXw - dX5X@ *.,.u.,.i ) u.,.y ;.3.$.8 d <.) ) p.>.W s.}.p.8.p.s.p.^ >.8.p.p.p.p.u i.i.1.: iXdXF 6.MXtXN.~.O.9.n %X",
"` A 9 ; %.$ aXmX6 $ eXqXO f.u.,.) ) @.#.f f u.a = d &.=.%.d 5.,.X.s.0.i.i.i.!.].0.<.q.h.` ].j.y T.!.a - fX8XJ } MXuX: 7.F.H.B.;X",
"7.c 0 0 4.- sXmX> $ 5XdXO +.) _ W ^ t p i &.d.&.q a @.p d 2.a ^ X.X./ 8.a.].Q.8.{.a.8.<.e a.j.1.{ T.7.E kX=XP. .MXtX: W F.H.V.<X",
"0.<.` Z 4.j dXmX- w M.hX< p >.&.y i @.#.f ,.g.u.>.f 2.q a &.p i ^ p.g.g.p.i.!.8.].6.W _ 8.X._ 8.8.` / @XzXr.a.X.MXiXN.P.E.~.N.<X",
"~ ` ` C :.@ sXmX- d y.kX=.d *.t f &.*.#.f u.u.&.d ,.d.d d f >.p e h.g.8.q.^ 6.7.( W ` 8.s.p.` 1.7.0.z 2XhXk i.O.MXuXB.)./.).B.:X",
"C C <.6.8.+ rXmX$ 2.e jXm.* *.@.1.1.@.@.) u.,.f f ,.2.%.%.2.2.a e 8.8.h.a.r 6 ..q.q.h.g.5.q.h.h.7.5.F 0XdXn i.M MXyXg T.Y.Y.m ,X",
"<.< ~ E 8.$ rXmX- 3.< gXM.O -.*.&.u.*.+.&.3.d.d.f.z.*.t %.*.=.3.,.h.}.h.[.z.,.j.}.[.h.5.2.2.e.+Xx.r.B dX8Xn i.l MXtXv 9.Z.Y.m <X",
"1.M Z E 4.$ dXmX1 w.- rX5X  + X + - @ X O + O o $ - $ + @ $ : $ - B n h z x g g g B.n @ : : - j g - g jX3XV } N MXtXv 7.P ^.V.;X",
"1.6 r ` >.@ dXnX> k.+ 7XxX9XwXqXqXeXqXqXqXqXqXqXwXqXwXeXwXwXwXwXwXiXyXaXyXwXyXwXwXdXpXyXaXpXiXrXqXqXwXcX@XJ !.U MX9Xg J.P ~.H %X",
"[.< * 0 ^ + sXmX- : 8XkXqXqXwXeXeXeXwXrXwXwXqXqXqXqXqXqXqXwXwXwX0XwXyXwXyXyXyXyXwXwXyXpXyXqXyXpXyXyXtXpXxX3Xg M MXuXg  XI.R g $X",
"` < u ;.r.g dXbX2 gXkXx.O + @ $ : : - : : - $ + @ $ $ @ $ - : - : g v j v N.g N.S.g : N.m $ : v v m B.g M.cXfXV mXuXv ^.'.'.P &X",
"0 5 1 7.[.: dXBXlXrX$ > 0.u $.;.>.4.$.%.1.p.r.5.2.0.<.) p.8.>.0./ T.{.W.J.~.H.J.|.|.|.{.Q./ 0 W ....J./ : G pXcXBXpXv T.F.{.n &X",
"r.~ ; C 4.- aXNXv.: ,.` X.! 3 d ^ u @ @ < Z 0.;.w e w < A Z :.8.{ Y  .W.H.x P P x ).|.' K S B ] ^. .Y | Q.9.g =XMX4XH {.D.c $ $X",
"0.^ A ` ..8.k.*.$ 4.M V 8.6.y <.<.` ~ u w ( i , ^ u % < A W :.~ 9.Q.9.~.H.: K ^.H.F.W.Y F.P.G.W. X' B F.L.A.T.F X.6.T.).W. .J <X",
"q.< w Z ! 8.^ $ s ` w ( o.6 0 :.W C u 6.{ N , & 0.0.^ ` 8.) s 3 l ..] 7.K x P ~.[ x | G D.`.O. .|  .H.{ F A.`.^.o.F.T.| W.`.V.:X",
"}._ < w r , u 4 r 1.Z ! ` & # ) ! 2 , ^ X.( s # 8 d ^ _ ! w < / L B ..H.H.F x F.[ z x A V E.Q.C l ^.{.:.' O.P.W.G.W.T.B  . XB.%X",
"a._ Z < @ < 8.^ @ ) ` e ` W @ E 9.( y E M N d s 8 @ % < w w W ) | G.{.~.o.F G.~.{.o.[ A > H.{.Q G ).7.5 ! o.A.R F.|.G.F O.).Y.1X",
"X.> 9 8 + 4 1.i * p s 3 Q 8.` 6 2 Z ^ 5 % E 4./ E 1 < ! W u _ C l | T. XH.O.G.T..XO.B ..Q E ~.F.Z.Z.A : : x D.G.A.G.E.o.Q.Q.V.,X",
"q.; 9 9 @ # < e p * 3 7 , / h.a.6 2 W ^ ! ~ 8.<.E ! ( ( ` ^ 0.! 1 { t.T.9.' o.G.W. .L ! Q [ H.F K.Z.7.Q.H.L A._.U.G.T. .Q.{.n -X",
"].M 6 ~ r < 8 d { V i 7 $ @ A Q.1.C C ` ~ 6 ` W W a.8.8.C < 7.^ 6 ].W.L ] l 9.).R.W.Q.X.l ~.|.[ B.`.|.J.|.~.H.XX^.F.P P G ).J %X",
"!.A < 6.` ^ p 2.i.D ;.9 r % < O.8.E w e , 4 / < W 1.` ..` E d 8 5 {.W.l ! Q [ Q. . .9.T.P F.J.[ P |.{.: ' ~.E.^. X~.T P U W.D.,X",
"q.1 3 :.<.8.i w <.^ ~ <.D w 6 y W u , ! ^ 6 ` ` M 1 < 4 8.6.0 % 5 / W.D.l Q A O.!.| } i.D.G A x [ H.~.H.[ Q L  .G.).J.L Z.U.H ,X",
"[.l 9 ~ r W W e % 8 u W M D <.0 u r < X.^ % C ) ! E ~ 6 C 6 % * u A Y W...A 1 x ^.`.O.o.F.E.[ h x V S G.J.9.G V F E.H.F D.P j -X",
"[.M 9 ;.@ s 1.Z & * % 0 r 6.0.~ u y W 0.u @ w ^ W r < 6 E r % ; Z 9.o.O.J.J.! 1 Y `.i.l 7.|.o.l ! S 2 A 6.7.| F P ~.[ x ).G.v >X",
"g.c 9 9 3 * < W ` s 3 ;.u ~ <.~ = @ < i u ^ 8.q.! < e r ^ 1.^ ~ M 9.{.H.A 9.| Y I W.T.A ! C L G.H.S M ..[ l | Y D.~.H.' O.H.m %X",
"4.~ 4 6 ` < # #.1.8.u & r r 0 $.3 + # 8 , E 1.W % i W C 6 / 0.8...o.^.~.K K B G. .P.t.9.E - o.~.O.l A 7.' x G.T.o.o.T.o.: J.Z.-X",
":.u u 1 ! r 7 7 ) 8.3 @ 8.` + * y 8 8 ;.< i 1.s @ W 8.` ^ 4 <.8.! S T.XX|.J.o.~.T.Y I a.Q./ A ! { T...O.~.G.S O. .B ' o.] 6.m <X",
"7.k 8 3 < ) ) w C E # @ ( X.3 @ * s :.s % E y r u r 8.q.^ u Z r 1 A D.OXXX[ G.~.W. .A B J.Q.c k Q.^.V | .XE.> 1 [ ] F.P.../ j %X",
"}.l @ ;.C C 0.1., < ^ u N 9.1.3 4 8 $.d i r $ e u < ` / y / Z , 1 ..Y.'.' h B H.W.T...2 V T.! 1 ..7.x `.oXR [ C A C  .P.l / H v.",
"h.A W Q C , 1.0.s 9 W { 9.a.^ ~ u 4 ^ ;.<.^ r 3 4 6 4 6 ~ ^ E e - 6.(.D.K K [ H.P.W.Q.X.t.i.A > 2 ] U (.(.G ] l l ] B F.o.0 F *X",
":.~ 6.1.) ^ ,.2.%.%.u / _ ! 8 ;.s i ^ s y 1.h.4.%.a * * y >.<.) 0 / Y ' [ 7.J.H.F. .8.{.`. X{./ / 9.F.L  .O.6.6.W 9.o.{ Q./ - %X",
"B - + 1 1 l ; X + - $ O $ $ $ $ $ - : $ $ $ M B 1 @ + O @ - > - g J H : n n H V.C.h : x B F B.J n F.V.g g n z A.V.n U g z U m @X",
">Xx.c.&X=Xn.c.c.c.=Xb.c.b.n.v.v.n.=Xn.n.$Xb.c.n.&Xc.b.n.=Xb.v.v.$X>X6X&X>X<X-X,X,X,X-X*X:X$X%X,X,X,X<X-X>X,X%X>X;X%X4X>X*X,X:X6X"
};
