/* XPM */
static char *result[] = {
/* columns rows colors chars-per-pixel */
"64 64 255 2 ",
"   c #000101",
".  c #040D05",
"X  c #02010A",
"o  c #0B010C",
"O  c #0E0E0E",
"+  c #041904",
"@  c #10120F",
"#  c #090611",
"$  c #160316",
"%  c #100F10",
"&  c #111111",
"*  c #191A18",
"=  c #2D1515",
"-  c #022902",
";  c #003400",
":  c #003B00",
">  c #0A330E",
",  c #192C11",
"<  c #1C3616",
"1  c #2D2A1B",
"2  c #200023",
"3  c #251C26",
"4  c #302F29",
"5  c #4C0000",
"6  c #522A13",
"7  c #6B3518",
"8  c #4D342B",
"9  c #68372A",
"0  c #6C3C30",
"q  c #014400",
"w  c #094507",
"e  c #004B00",
"r  c #0C4C02",
"t  c #114D02",
"y  c #164B0B",
"u  c #015400",
"i  c #005B00",
"p  c #0B5801",
"a  c #145301",
"s  c #1A5502",
"d  c #145B01",
"f  c #1C5B02",
"g  c #16530C",
"h  c #1B540B",
"j  c #16590C",
"k  c #1D5A0B",
"l  c #184C14",
"z  c #195415",
"x  c #1B5414",
"c  c #1D5B13",
"v  c #225C03",
"b  c #24570B",
"n  c #2F520C",
"m  c #225C0C",
"M  c #244B16",
"N  c #235414",
"B  c #245D14",
"V  c #23531C",
"C  c #245B1B",
"Z  c #2A5818",
"A  c #2B5B1C",
"S  c #325A1D",
"D  c #006300",
"F  c #0C6600",
"G  c #006B00",
"H  c #136200",
"J  c #1C6301",
"K  c #1A6707",
"L  c #1C6B00",
"P  c #017300",
"I  c #087A00",
"U  c #1D7300",
"Y  c #187901",
"T  c #1E6015",
"R  c #236403",
"E  c #2A6604",
"W  c #246C01",
"Q  c #2A6C02",
"!  c #25630C",
"~  c #29640C",
"^  c #256A0C",
"/  c #2B6B0B",
"(  c #336B09",
")  c #247201",
"_  c #2B7301",
"`  c #2C7B00",
"'  c #287A06",
"]  c #2D740B",
"[  c #347C03",
"{  c #347805",
"}  c #31760C",
"|  c #347B0C",
" . c #256313",
".. c #2A6414",
"X. c #266A12",
"o. c #2C6B14",
"O. c #26611B",
"+. c #2C641C",
"@. c #2E6A1B",
"#. c #326C14",
"$. c #31641C",
"%. c #35681A",
"&. c #326C1C",
"*. c #2D7314",
"=. c #2D7617",
"-. c #337413",
";. c #3B7415",
":. c #347A14",
">. c #397D15",
",. c #33731C",
"<. c #3A741D",
"1. c #357B1B",
"2. c #3A7C1C",
"3. c #324B2A",
"4. c #295724",
"5. c #2B5C23",
"6. c #325C24",
"7. c #33582A",
"8. c #395A32",
"9. c #1D6020",
"0. c #2C6322",
"q. c #2C6824",
"w. c #336424",
"e. c #396525",
"r. c #346C22",
"t. c #3A6C24",
"y. c #356429",
"u. c #3A652D",
"i. c #356B2A",
"p. c #3B6B2B",
"a. c #367323",
"s. c #3B7324",
"d. c #367824",
"f. c #3C7C23",
"g. c #3C732B",
"h. c #3D7A2A",
"j. c #3D6832",
"k. c #3D7331",
"l. c #555D1D",
"z. c #4C5333",
"x. c #6B4527",
"c. c #664537",
"v. c #754536",
"b. c #6A5838",
"n. c #446B2C",
"m. c #417C24",
"M. c #44772C",
"N. c #437B2C",
"B. c #56782E",
"V. c #446C36",
"C. c #437334",
"Z. c #457B33",
"A. c #497936",
"S. c #49753A",
"D. c #4B7C3A",
"F. c #6C6A3B",
"G. c #595546",
"H. c #71574E",
"J. c #516D4A",
"K. c #577947",
"L. c #597954",
"P. c #6B725C",
"I. c #576D6F",
"U. c #72736C",
"Y. c #8B533B",
"T. c #895947",
"R. c #946751",
"E. c #AE745B",
"W. c #85776D",
"Q. c #298300",
"!. c #348200",
"~. c #3A8402",
"^. c #3A850B",
"/. c #358215",
"(. c #3C8214",
"). c #3D821C",
"_. c #3D8223",
"`. c #3E822A",
"'. c #438E0E",
"]. c #448A16",
"[. c #42851D",
"{. c #448A1C",
"}. c #4C961B",
"|. c #438424",
" X c #458A24",
".X c #498C24",
"XX c #44842A",
"oX c #4A842B",
"OX c #468A2A",
"+X c #4A8C2C",
"@X c #4B9224",
"#X c #4D922A",
"$X c #52962C",
"%X c #488634",
"&X c #4C8434",
"*X c #4C8C34",
"=X c #538939",
"-X c #4D9335",
";X c #529333",
":X c #589738",
">X c #5FA536",
",X c #4F8141",
"<X c #588647",
"1X c #5C9842",
"2X c #5C8353",
"3X c #5E8854",
"4X c #628C55",
"5X c #638658",
"6X c #649255",
"7X c #679559",
"8X c #6B9C5C",
"9X c #6DA25C",
"0X c #75A95E",
"qX c #6D8767",
"wX c #76926F",
"eX c #7BAA6C",
"rX c #8B8877",
"tX c #83967D",
"yX c #A49176",
"uX c #C08C7C",
"iX c #817D81",
"pX c #7B8C87",
"aX c #908B87",
"sX c #889885",
"dX c #8B958A",
"fX c #8E9A8B",
"gX c #949C8D",
"hX c #9A9796",
"jX c #A9988D",
"kX c #8BA386",
"lX c #8EA489",
"zX c #92A58D",
"xX c #96A393",
"cX c #99A597",
"vX c #9BA897",
"bX c #A7AB98",
"nX c #B7A696",
"mX c #A09EA2",
"MX c #A8AAA3",
"NX c #B0ABAC",
"BX c #A9B4A6",
"VX c #ADB4AB",
"CX c #B1B9AE",
"ZX c #B6B7B4",
"AX c #B4BCB2",
"SX c #C2B19C",
"DX c #C5BAAD",
"FX c #B8C2B4",
"GX c #C6C4BC",
"HX c #C5C9C3",
"JX c #C6C9C4",
"KX c #CACEC9",
"LX c #D2D0D0",
"PX c #D8D8D7",
"IX c #E6E1E2",
/* pixels */
"[.;.C.4.g 0.<./ v @.r.A.&Xn.$.w.M.Z.4.j.oX&XD.=Xt.O.i.r.m.<.B B [ }.*Xh.1.*X:X.Xm.=X:XOX:X:X=XZ.`.*X1X:X.X;XoX:X|..X X.X:X:X(.6X",
":X;.g z c B E #.&.v a B #.s.r.g d o.C c <.h.<.%.+.! B v <.2.h b _ [ -X`.L 2.>X[.XX*XN._ [.#XXXf.L 1.-X`..X@X_ { ].>.[ (.|.f.!.3X",
":Xm.z q m r.+. .o...k t v #.A r s r...v =.@.o.m R f s b ~ &.h s -._. X|.{ ].;X:X=Xa.1.1.~.].[.|.).(.|  X#X@X{.| ;.@X.X{ 1.OX^.6X",
";.-.C : a !  .+.#.E +.r.E <.0.x !  ...m  .! s b X.,.Z b ! ~ +.B ,.XX).[ ]..X>.[.|.2.XXOX^.~.OXOX).[.-X:X).J ). X_ +X$X{ } |.'.8X",
"( / O.w R ..h r.&.a k h.;.-.p.5.r ..&.h J -.t t &.h.$...$.+.$.m f ,.$X| ! OX@X'.|.OX`.2.@X{.@X.X| L #XOXW } _..X>.)..X{.:.*.` 8X",
";.E +.C ! o.O.+.@.k h t.f.R 0.C a o.$.B o.s.h t &.@.v B B s b a ! ^ .X{.r X.^.].#X_.*.1.$X.X[ .X(.Q ] ).(.| >.:.).>.(.(.} -.U 6X",
"s./ +.B k B @.r. . .f &.s.R a g  .r.b s r.+.v ~ m +.Z h s v b t ,._.>.} j  .^ H {.$X:.]  X>.]  X#X[.J _.@XQ H _  XOX$X{.H _.~.6X",
";.m B t k @...f a B s @.o.! B a B  .r @.&.q s &.m h 5.B #.M.y.q *.|.:.-.X.@.d.Q '.>X X:.Q W _ OX.X(.] +X.X` ).OX_.).$X:X| 1.!.6X",
"oX,.c O.a B <.f r ! a +.@.@.! s v s O.0.v ~ f m B B &.r.B w.r.n S B.OX-.} ;.r.a.{.>X#X/. X).d `. X(.).-X#X{.|.#X X) | $X#X|.}.9X",
";X,.a O.+. .<.&.a &. .k &.o.~ s o.s.g.c s s.r.r x w.o.! t r z.8 $ z.B.W 2.[. .X.].$X X:.2.#X`.2. X).>. X#X#XJ ).;X).(.#X[.OX}.7X",
"oX( y O.r. .@.&.W -.h c s.<.-.~ O.s.;.E s B 0.a v b +.r.c z.8   1 8 G.%.[.[.;.2.|.OX;X1.: a.+X_ _ >.OX_.^.(.W ) .X/.} #X|.2.~.6X",
"B.E O.0.k a O.m ( 2.B y g.m./ s.r.s R R b r  .d a q q g.Z.z.R.R.R.T.T.B.>.} |.|.+X_.).-. .X.-.[.:.).1.>. X#X/.). Xd L {.|.2.) 4X",
":X#.t A @.s +.+.-.-.O.C ! ~ ~ XXr.r R -.@.g 0.0.b b f r.C b.jXv.Y.c.jXB.R m }.].XXm._ :.f.&.[.[.).).*.=. X@X| ). X| (.{ ;.;X~.3X",
"s...h @.&.v +.r.&.d C g.s.,.<.<.r.f ^ / n.D.q.k.C.t.,.&.: R.uXY.T.Y.uXF.K #._ ^.|./ E -.h.XX[..X.X1.] =.^.(.#X-X#X:X$X{ -.=X~.2X",
"$.v @.$.B m +.O.m s  .r.M.N.o.! &.s d o.C.A.g.g.S.Z h B 9.K.E.R.0 T.R.B.*Xs.K <.{.].<.p .X$XN.&._._.1.F L ) ).)..X.X]..XOX,.L 5X",
"Z.B t B O.s +. .s a ..s.&.@.f &.s.! ^ s.Z x r.@.C.N - e.i.j z.R.v.H.K.:X1X:Xr.M.[.:XA.d ].@X*X,.1.1.1.=.) ) /.) ` } Q +X+Xo.H 5X",
"N.v O.O. .f +.@.o.! a @.&.f s o.E / @.+.i.+.A p.y.B $.&.C V z.c.c.c.z.7.p.%Xa.q.2.-XOXW ]  X X/./. XL ).OX2.+X;X:.J |.|.).OXF 4X",
"m.v l l m &.@.+.s.g.w.t.g.i.0.w.s.f.y.V p.,XD.S.V +.g.3.4 X c.c.1 0 8   $ 1 3.d X.%X*X`.OXXXOX).,.+X|.d.M.N.&X1X;X] ). X X-X!.2X",
"m.v - : r +.s.u q q D G e e : q u u i u : : i u . u z.2 % & & 8 c.1 X * & O $ 8.H q P Y I P Q.Q.G Y Q.i D i D Y ` _.).OX).2.~.3X",
"N.%.e.5.c +.J tXVXAXAXAXAXAXAXAXAXAXAXFXAXZXAXAXAXdX  * & & & X # o & & & & *   fXFXFXFXFXFXFXFXFXFXFXAXFXAXAXCXqX` XX} |.`.L <X",
"s.@.k.i.5.q wXPXPXZXVXVXVXVXVXAXVXVXCXVXVXVXVXVXAXU.  * & & % % & & & % & O * X U.AXAXVXCXCXVXVXCXVXVXVXAXVXAXPXLX7X!.| ].2.F 7X",
"O.q w 4.5.; cXHXsXhX  e u q u e ; q e ; + q u : : + * O & % & & & & % & & O O *   u D q W { u q H D q e W e xXzXKXfXD [.{.|._ eX",
"M.t : 5.y.e vXHX6.CXj.V.j.8.j.8.8.j.8.8.n.V.u.Z 3.  X & & & & % & % % % @ O * *   1 D.B.B.D.C.y.K.D.S.S.S.n.AX2XKXkXD `._.-X~.8X",
"s.E C q.y.q xXHXv CXJ.w.p.y.A Z y.j.V V 7.r J.pXU.gX3 X & & & % O % & O @ * X 4 iXI.L._.Q <.&Xg.+.a.M.<.v <XCXB.KXkXY OX1._.F K.",
"<.#.z 4.i.q cXHX: MXqXd p.p.w.h e.C.e.M a I.mXnXGXGX*   & & & & & % & & *   W.jXnXnXdXaXj.s.1X1Xt.g.p.Z J eXBX{ KXlXQ.|.(.+X` 2X",
"M.~ y z r.q cXHX- cXsXq 4.y.p.M 6.e.6.e P.mXjXrXnXH.  1 % & & & & O O & &   jXDXSXnXnXnXL.J N.Z.&.r.g.p.i sXbXL KXkXP OX(.#X[ 7X",
"N.J z c 5.. hXHX+ dXgXe 7.y.w.N M V e.R wXnXjXjXU.  3.4.# & & & % & O O % $ H a.P.yXnXW.s.@. .g ..<.s.M.q xXkXD KXtXI  X.XXXU 7X",
"&Xo.g i.y.- cXHX; wXMXe 7.7.S w.7.M Z t.V.rXyXU.  , u.N * & & @ % O O & o < S.r.J + $ . ! g.Z.Z.M.&X&XD.J BXqXQ KXkXP _.+Xf.i 4X",
"|.~ q +.i.q cXHXe qXVXv A A A A t.t.h Z $.u -   $ < e.t.1 % & & % % O & O * V.S.S.A.w.t.s.<.m.s.M.N.M.XX=XCX<XQ KXzXG X.).+X` 4X",
"m.-.q.O.i.q xXHXq J.VXJ.A 7.S 6.S t.S w.t.e.u.3.3.N $.M.3.$ & & % O & & . 3 V.D.0.V.&X&X=XM.M.#.#.s.&Xs.L.VX;.2.KXlXG =._ XX{.6X",
"[.} q.i.r.u cXHXp s BXP.r 7.5.V.u.e.e.A.C.u.j.S.S.V C &.G.3 # & % O # & # 4 z.g.A w.C.M.Z.M.D.C.n.m.<XW wXBX_ h.KXkXI `.>.1.[ 2X",
"-.R j c 0.u cXHXJ u vXwX: u.u.S.V.w.e.S.n.w.y.S.y.g A p.3.3 O & & O % & . 3 z.Z.y.V.D.M.M.Z.A.w.m.Z.g.F zXvX_ a.KXkXQ.OX1.f.U 3X",
"&.^ j r 0.q cXHXj u fXdX- V.n.e.$.S 4.4.S Z p.7.y Z 7.t   % * % % O & % *   3 ,XD.D.Z.N.&.&XA.b |.oXC u MXwX!.2.KXkXi d.)._.Q.6X",
"s.T T c q.u vXJXp e wXmX: 3.%.$...$.l 4.Z w.C.6.M 7.e gXiX    * @ @ & *   4 hXMX%X&Xs.&.m M.D.r.-.m.g. .BX4X[.;.KXlXi X./.`.!.9X",
"g.a.&.~ g.D vXHXp f P.MXd V 6.w.N Z 4.4.S t.A.p.w.v J.PXGXiX4 X X $     4 aXMXDX7XQ $.#.s.;.$.s.a.a.@.<XVXC.N.<.KXlXQ.{.).OXQ.9X",
"O.@.,.! 0.q cXHXe A V.BX8.S 6.V S w.4.7.+.n.n.w.e.e cXIXmXhXiXP.3.y G.U.mXmXmXZXMXi t.s.N.M.t.s.s.a.K qXBXH h.2.KXlXQ.#X@X-XQ.6X",
"m ! r.a.g.: hXHXu y.b VXJ.t 7.4.t.t.4.4.e.t.u.S u.u JXLXhXhXmXaXZ m.<.gXZXNXNXmXMXN.N.M.g.M.Z.Z.a.g.) sXvXU m.R KXlXD |.}.}.Y 9X",
"r.f ! O.s.q xXHXu u.d MXU.; 8.7.w.n.7.3.6.e.V.n.V.S.SXaXW.rXhXU.f D.[.tXmXW.T.0 v.B.Z.p.y.y.p.,XK.k.) vXtXU m.R JXkXP d.'.}.Y 9X",
"s.m .. .y.u vXHXd j.e gXpX  : - : u q + ; : : - q n E.7 6 5 H.J.e _ P B.H.5 0 0 c.B.I q i i u D i u D BXwX_ -.E KXkXP f.' +X!.7X",
"t.s m <.0.q vXHXp S.; sXVXsXfXdXfXfXdXsXdXdXdXdXfXyXuXT.6 H.hXfXdXzXzXvXvXaX0 0 9 rXvXzXzXzXxXzXdXdXfXZX<X` oX{ KXsXG `.=.OXQ.<X",
"&Xs y c 0.: xXJXu i sXVXdXdXfXgXfXlXfXgXgXdXdXfXsXgXE.9 6 P.zXdXsXfXlXfXzXkXb.9 6 W.sXlXzXsXlXzXlXkXkXxXAXwXD W KXlXD -X{.~.D 2X",
"&.s  .+.k.D cXHXf BXMXJ.; q q q i i u i D u q : r l.T.6 c.f u u i D P G P Y ,.0 v.7 i Q.Y e i P P Y Q.D L.AXvXQ KXzXP OX$X$X:.5X",
"c j d a.%Xi cXLXVXgXq p g.B 4.0.w.i.4.5.t.s.k.p.q.H.0 9 l.=.w.t.#.XX+XOX_.+X:.b.9 9 =X*XXX+.z +.,.2.|.@.i _ zXAXPXlXI  X).*XL 3X",
"k.0.u ! i.i zXLXL.u a.&.<.o.g C O.B q q s t.D.C.p b.v.0 l.K q.g.-.{ >..X).W ' B.0 9 l.=.^ ] W ] *X:.} :.XXXXD 5XKXwXQ.OX>.K e 2X",
"g.o...,.&.f.S.7.q t.R / <.s.B r.t.&. .O.#.Z.t.6.k.3.8 = N ..+.O.f.%Xf.OX_.i *.`.1 = * ] >.[.)..X;X*.L ).(.^.|.) ,.<. X#X@X:.` 9X",
"g.s f ~ o.s.@.q C &.J #.<.k z 0...! c C.N.%.b N =X4 X # 6.g.w.C @.N.a.N.,.,.1.*X< # $ R ).$X).;.| >._.-._ ^.$X*X1.1._.:..X;X!.7X",
"=X%.s v v a B h m t.m ..,.r r w.o.f r r.=Xs.y.l y.< $ * M e.A g.-.-.h.%X`.1.*.`.< 3 # y ) OXXX^ H +X%X@.-.1.[. X)..X_.W ).-X!.<X",
"N.#.~ s q h a.+.e $.t.v r.o.q B 2.#.m +.t.r.i.j.S > $ o , v O.&.1.|.*X%X/.=.).+X4 $ # y H 2.*XX.{ #Xh.j *.1.| ^._.#X_._ 1.#X}.0X",
"s.p z x : h t.B y x C g  .d.&.b f ..O.k r r.Z.i.+.y o o , m %.m J -.m.;Xf.1.). Xe.  o M @.X.OX/.~.~.X.i i L (.(.(.). X1._.`.!.9X",
"XXp z z w w s b V z y z a ,.Z.h.f v O.$.+...g.@.! A o o l $.M.o.d -.2.OXf.=.1.).m.X o l X.*.d.U '.^._.`._.] (.$X{.)._.).OX+XU 6X",
"%XR k B h s x 5.} Q Z l e q ^ XXs.! m &. .k &.+.o.M.* o y v r.q.f *X.X{ *.K f.#X|., X b L OX-X=./.#X-X`.-XOX).:X#X:.| } { .X' 4X",
"oX~ f r.&.+.Z w.m.( 0.x b r f <.s. .v m a k @.s O.r.<   V  .+.c j =X.XJ o.X.=.XX>.M X S | /.`.1.' -X*Xi =.OX X.X-X.X| ] | .X(.8X",
"h.d g q.r.s.Z v r.+.O.&.( R k c O.m s ..+.b &.&.v f < . S s.c r g *. X).J X.^ 2..XS   $.(._ ^ K *._.OX_.,.*.] ).).-X_.' ~.).Q.9X",
"*Xf g 0.m @...s r z  . .R ( 0.B B b s <.+.r m @.X.~ C X M J r r  .! }  X*.^ d J #XM.  ..). X=.H L Q W 2.h.d.Q ) _  X_.' (.] G 6X",
"=X! g 4.q V t.~ t t w C m r.g.O.B B ..g.B q f &.&.f b = > T r r ^ 2.1.1.`.`.o.d | <.$ , f.*X1.J / / J X.d.d.:._ ] OX1.L #X).P 7X",
"k.K z x g g s $.r.A g 0. . .r.+.y q s B B +.s.M...k G.x.6 q.+.O.R `.*X`.^ `.:.} ` B.7   4.K _ )._.~ J <.,.J =.} ). Xd.=./._.Y 3X",
"i.O.j k &.a w 5.t.s.B p m m x 5.y : r x a Z s.+.w z.1 @ 8 n.a.s.,.,.*XOX*.^ ) )./.B.7 # * M 1.OX1.J ! f.=.J 2.|.:.1._.=.i `.!.6X",
"q.B B s #.b l l &.s.y q s.&.: y x x x 0.s  .r.f G.4 & 1 8 B r.t.#./ OX>X-X_.1.|.{.;.l.4 3 x.#.^ 1.f.2.2.OX).] 2.1.W =.1.=.a.Q.9X",
"d.J z h s @.$.m B ..w q #.<.a q g C 0.5.r B m m z.8 1 8.o.K ~ m d ^ (.>X:X=._.-X=Xm.J z.4 S  .d XX+XW :.:X{.d p o.*.).{.,.@.D 2X",
"=XJ q 0.! m g.t.t s +. .~ h.a.h g g C +.Z ! q h +.n t.#.B $.~ a d ,.{.$X=.p 2.=X:X:Xs.v { |.o.d ,.<.J $X>X~.*.! ^ ^ :.[.K *.) L.",
"h. .X.o.! s t.g.V x ..,.2.N.p.p.+.A 0.p.t.i.0.x c g j h C +. .m u a.{.].U h.%X%X|.:X=X,.XX Xa.! T a.).;X+X;.,.K J *.Q 1.2.T ) 6X",
"q.O.s.&.&.w.y.w.0.5.B +.&.r.C y.0.e.y.y.Z C.D.S.u.C y y Z 0.i.$.c @.-.*.=.k.<X`.XX[.=X&X:X1X<Xa.g.XX|.;.|.XXf.a.o.f.1.,.`.+.u 3X",
"W e : d K d p - : u e ; e u q e q i u u q u J E d q : ; q p p u D ` } D Y Y ' !.~.F i ) L ) !.) Y /.!.D D U U ^.` U [ D H [ Y <X",
"7XL.J.2XL.L.L.G.J.5XL.J.L.L.L.L.5XL.5XL.2XL.L.L.L.L.L.L.5XL.J.L.2X7X9X3X7X9X6X9X8X7X6X4X4X3X3X8X8X8X9X6X8X7X2X6X8X3X8X7X7X8X7XeX"
};
