/* XPM */
static char *result[] = {
/* columns rows colors chars-per-pixel */
"64 64 254 2 ",
"   c #010003",
".  c #07060E",
"X  c #2D0401",
"o  c #371A09",
"O  c #112C06",
"+  c #3D200F",
"@  c #243C05",
"#  c #3B2416",
"$  c #05132C",
"%  c #072933",
"&  c #2B2F32",
"*  c #2B3439",
"=  c #461502",
"-  c #452307",
";  c #462A1B",
":  c #502D17",
">  c #602F15",
",  c #4A3429",
"<  c #593523",
"1  c #6C3422",
"2  c #653D27",
"3  c #2C4407",
"4  c #324C08",
"5  c #3B5702",
"6  c #2E4418",
"7  c #334B15",
"8  c #324819",
"9  c #354C1D",
"0  c #385618",
"q  c #3B541D",
"w  c #3E591C",
"e  c #104D25",
"r  c #374E22",
"t  c #394D22",
"y  c #375324",
"u  c #3D5423",
"i  c #3F5823",
"p  c #3D5429",
"a  c #364A39",
"s  c #4D5711",
"d  c #43581A",
"f  c #415C1E",
"g  c #456306",
"h  c #45621B",
"j  c #4A691B",
"k  c #514E2E",
"l  c #425B24",
"z  c #455927",
"x  c #415629",
"c  c #445D2B",
"v  c #455C32",
"b  c #485C38",
"n  c #6A432B",
"m  c #684C38",
"M  c #754B33",
"N  c #7B5437",
"B  c #466124",
"V  c #496525",
"C  c #446A25",
"Z  c #4D6A25",
"A  c #46612A",
"S  c #4A642C",
"D  c #4E6A2C",
"F  c #506F25",
"G  c #57662E",
"H  c #516D2D",
"J  c #537324",
"K  c #54732C",
"L  c #58762E",
"P  c #57792E",
"I  c #5B7A2D",
"U  c #4C6432",
"Y  c #4E6931",
"T  c #496539",
"R  c #526D33",
"E  c #556438",
"W  c #546D3A",
"Q  c #4B7337",
"!  c #567333",
"~  c #597534",
"^  c #5D7B34",
"/  c #56723A",
"(  c #5A743B",
")  c #577A3D",
"_  c #5E7B3A",
"`  c #6E6D3B",
"'  c #607E35",
"]  c #6B773D",
"[  c #617E3B",
"{  c #293743",
"}  c #333D45",
"|  c #263B55",
" . c #183260",
".. c #334946",
"X. c #39464C",
"o. c #2A445B",
"O. c #3C4956",
"+. c #395856",
"@. c #144769",
"#. c #2B486A",
"$. c #314B69",
"%. c #39586A",
"&. c #2B4F76",
"*. c #395776",
"=. c #3F646C",
"-. c #4D4E4E",
";. c #495747",
":. c #485659",
">. c #685645",
",. c #745A46",
"<. c #4B6847",
"1. c #58694A",
"2. c #597548",
"3. c #4B6856",
"4. c #526D52",
"5. c #587859",
"6. c #627C42",
"7. c #65794B",
"8. c #737149",
"9. c #677A55",
"0. c #485965",
"q. c #4E5D6D",
"w. c #4B686A",
"e. c #59656A",
"r. c #597767",
"t. c #4D6E75",
"y. c #5B6976",
"u. c #667577",
"i. c #697273",
"p. c #8B4F3B",
"a. c #865A3B",
"s. c #B0582D",
"d. c #8F613D",
"f. c #915A43",
"g. c #B15D42",
"h. c #8C6948",
"j. c #966846",
"k. c #877949",
"l. c #9A724C",
"z. c #886B54",
"x. c #9A6B56",
"c. c #867C58",
"v. c #9B7556",
"b. c #B6684A",
"n. c #AB714F",
"m. c #A87957",
"M. c #B87958",
"N. c #8D7D6E",
"B. c #B17E62",
"V. c #CA704A",
"C. c #C47855",
"Z. c #5F812E",
"A. c #62842F",
"S. c #628235",
"D. c #64833C",
"F. c #68873E",
"G. c #688938",
"H. c #6B8B3D",
"J. c #658442",
"K. c #688642",
"L. c #6C8B43",
"P. c #6A834C",
"I. c #6D8B4A",
"U. c #718E48",
"Y. c #6D914E",
"T. c #729345",
"R. c #75954A",
"E. c #799A4B",
"W. c #6C8452",
"Q. c #6A8459",
"!. c #728B55",
"~. c #758D5B",
"^. c #7A9659",
"/. c #7A945C",
"(. c #7FA052",
"). c #5A8569",
"_. c #758C6B",
"`. c #8B9059",
"'. c #AA845B",
"]. c #B9815E",
"[. c #899269",
"{. c #AA8965",
"}. c #B98965",
"|. c #B89569",
" X c #B69375",
".X c #89A762",
"XX c #CB845D",
"oX c #C98966",
"OX c #CC916C",
"+X c #D6936A",
"@X c #C69873",
"#X c #D79C76",
"$X c #E19D72",
"%X c #CBA47C",
"&X c #DCA57C",
"*X c #E5A77A",
"=X c #1E5787",
"-X c #335A88",
";X c #3B6289",
":X c #356594",
">X c #465F83",
",X c #416386",
"<X c #517291",
"1X c #6E7A88",
"2X c #697C96",
"3X c #4F7DA8",
"4X c #887B8E",
"5X c #7B8787",
"6X c #788995",
"7X c #7B929D",
"8X c #5488B1",
"9X c #6888A9",
"0X c #7094AF",
"qX c #7C93AA",
"wX c #78A1BF",
"eX c #5F97C0",
"rX c #869296",
"tX c #83999B",
"yX c #AD948D",
"uX c #A7A594",
"iX c #8799A7",
"pX c #949AA4",
"aX c #849DB6",
"sX c #97A6AA",
"dX c #8CA2B5",
"fX c #8DA9B0",
"gX c #96AAB9",
"hX c #ABADAE",
"jX c #A7B6BB",
"kX c #C69583",
"lX c #D7AD86",
"zX c #D3AD8E",
"xX c #DCB894",
"cX c #E5AE84",
"vX c #E7B589",
"bX c #E7BC92",
"nX c #D7B0A4",
"mX c #ECC599",
"MX c #F0CB9B",
"NX c #CFC5BB",
"BX c #ECCCA3",
"VX c #F0D3A8",
"CX c #99B2C6",
"ZX c #A5B7C6",
"AX c #B3BCC7",
"SX c #B6C2CA",
"DX c #B5C8D5",
"FX c #CBD2D2",
"GX c #F1DDC4",
"HX c #CBDAE6",
"JX c #D0DFEA",
"KX c #D7E3EB",
"LX c #E8EFF2",
"PX c #FBFDFD",
/* pixels */
"[ ~ W c y U ~ S l D Y 6.7.R c z R ~ t v [ [ 6.2.p u c v G G x c P H.K._ _ [ G.S.! K.J.J.L.L.J.( ~ D.E.K.' G.D.R.F.D.G.K.^.I.G.!.",
"R.^ u p p B V H R z 9 V H R R 9 d S x i S 7.!.,.N m n k k k # p d I I.[ V I H.I ^ ^ P L G.L.D.) V I I.D.G.L.H P ' ^ I S.' ' ' 7.",
"R.[ p 6 c R S A D S l 9 d H v 9 x R U 8.c.l.m.|.].l.a.M n < , ; , S ( [ I ' L.H.D.V ! ^ Z.G.D.D.S.D.! H.T.H.G.~ ^ L.H.K ^ F.G.!.",
"~ R v @ 9 S c U D S U U S ~ U x x 1.8.`.v.d.'.@X'.d.a.a.M n < ; ; ; E / S.L.S.G.D.) J.K.S.Z.D.F.D.D.L.R.S.h ^ H.F L.R.J K [ H.^.",
"S D U 9 l S u Y R 0 p ( ~ H W v 3 >.8.p.a.d.v.'.j.d.a.N N n < ; # o k <.S J.H.G.D.K.D._ H.H.L.H.L B L.L.Z P D.H.^ ' F.G.~ H I ^.",
"G V U c c D c U U l i W ( B v z b `.z.a.d.|.%X'.j.a.N M n < ; + o + # k p D I G.H.D.H ~ E.H.P H.Z.Z K ^ ' L ^ L [ ' ' S.K K J I.",
"( V Y c l c D R c c l D ~ c q x !.h.a.d.m.@X|.m.a.N n < ; ; + o + , : o v U D h H.T.~ K S.^ K K.L.D.j [ L.Z h H F.F.T.G.f ' S.I.",
"R V z 9 i Y D x q c l U D z c 8.d.1 a.d.n.l.j.p.n < < # # + o o 2 n 2 - ;.4.^ Z A.(.K.I Z C D K.L.^ K L.G.P ^ K.' [ T.R.L ~ I ^.",
"K.~ c c u c R i 0 V q S D D E >.n n a.j.'.}.l.M 1 X   X X X ; M a.a.n - :.5.R ! H.(.H.^ F._ w D.D.^ ^ R.T.G.D.L.D.F I E.L.D.T..X",
"I.~ y c c c ~ H 0 R A l R U x t m M M j.l.l.,.< 1 f.v.B.B.a.< f.m.l.n - :.).T S G.T.F.L ^ L.D.~ H.D.^ D.T.L.V ^ R.[ ^ T.^ D.T.!.",
"[ G r c R S U R V H i x W R S E ,.2 2 2 2 > 1 p.OXvXvXbXvX@Xf.M h.N 2 - k r.) ~ D.J.T.~ @ ! L.H J ^ L.^ I S.C D F.^ P T.' ^ S.P.",
"D.B S U p q S c G ~ x y ( [ c 8.>.> < ; - b.x.oXmXBXmXBXbXbX@XM = : : - a r.J.G.J.D.^ ! S S ~ ' ~ ^ ~ ~ H.L.L D.D.d j D.D.( J P.",
"!.G 9 S D i U U K R S x S S D 8.>.o ; : n.cXzXbXBXVXVXbX X X#XB.< - ;   % r.L.G.D._ H ~ ( H ' D.D.^ K ! H.L.I D.G.L ' P ~ I.' P.",
"~ S l S D l c R R w c / ~ R W 7.>.# ; p.oXlXmXVXBXVXxXx.f.m.@X#Xx.X X ,.9.r.J ' D.H D ! _ [ D.H.L.! ! ! ~ S.T.T.U.R.T.L R I.D.6.",
"G l U U c l S A l q c / ( ] H v ;.a ; n.B.x. XMXVXVXlXa.,.>.z.#XoX2 < C.&Xc.f H ^ S.! 0 L.T.[ / S.D.~ h C J S.D.G.L.S.H.[ G F P.",
"2.c 9 c c u U c i u S ( Y S z U E ;.a m.M.,.m %XVXMXxX Xu.;.  {.$Xf.f.b.C.m.R ! S.H.[ f S.T.K.R ! _ ~ ! F J ~ F K K Z I.L.D j W.",
"[ l c b S l S Y H S 9 U R q d D V [ 7.x.B.4X:.M xXMXmXNX5X  3.uX+Xn.f.s.b.'.W S ~ L.D.D K H.H.^ S.G.C _ [ [ K.U.~ V D.D.^ D.Z W.",
"' l t t c H G c H R S H R D c c H 7.v.d.yXsX| % zXMXmXGXSX0XhXlX+XoXM.g.C.k.Y i h _ L._ D.' G.I Z J.^ K ! _ D.R.I.K D.F.D.L.S.7.",
"[ x O @ 9 U / f l c ~ ( S S l c S ( v.b.%XNXfXfXzXvXmXBXGXGXxX&XOXoXC.M.j.S K ~ R A [ G.G.I H.H.( L.L.D K V H D.S.^ _ D._ ^ A.P.",
"[ G U v l A H R i 7 S R c l z i c S 8.m.OXxXFXVX&X+XvXmXMXMXbX%X+XC.k.] Y l K ^ / R ^ G.' S.H.R.! D.D.F H.' K G w D.D.L D.[ j J.",
"W U 1.W x u R J.U 6 0 S U y A G d z R 8.{.%XvXmXlXlXmXzX@XcXcX*XOXc.[ ( I ~ S.! A [ F.L ~ [ ~ H Z K R V D.[ ' ' L F.S.I D.' j !.",
"S 3 8 x p q D S S x 4 D R A R H l S D l v  X*X*X&XyXnXkXkXcXlXOXh.Q _ S K H.T.D.C [ ^ h F.U.D B G.^ f D [ ~ [ [ ' L F I D.D.! .X",
"( 9 6 v S S U c l l c R S S S z x z t t F 8.%X*XvX#X#X*XbX#XC.z.a 2.2.2.Q g A.H.R [ K.~ S.G.! V J._ ~ D.~ ' [ F.H.L Z ^ ' U.S./.",
"( V x T S c c A S S R / R Y c l R W p x H d E `.}.#X#X#XOXb.g.N.7X7XfXjXjXsXuXtXrXQ.^ G.J ' U.[ C / D.K V F.U.[ G.D.D.D.^ ^ j 2.",
"R H u x U c p l u S U U U c.'.G c 2.R 9 c c 9 x @ c.uXyXg.s.V.sX0X0X0XwXaXCXwXqXAXnX'.8.0 S.E.E.K _ ! f L R.E.D.H F.L.^ ^ L.P 7.",
"6.S r p S z i l q z A 0 ` &X&X%Xm.i c 0 c ( c l Q.tX0XCXnXkXNXgX3X3X:X-X-X:X&.-XgXnX&X&X{.] D.D.H H _ R G I U.[ Z Z D.^ S.T.^ !.",
"[ c p v x 3 0 i 9 c R q m.bX+X+XXXk V ~ E U 2._.dX8X3XwXFXFXZXeX8X9X,X*.*.*.#.&.rXkX$XvXbX%Xk.l D ~ ^ ! f B [ ' J j I G.L.[ J !.",
"K.D y W U 7 x d t U H c OXcXM.b.b.s 0 R E g 5X0X3X:X3X3XeXeX9X2X<X5X<X#.o.$.%.*.6X`.l.+XcXvXvX`.~ H.L.F.R ! ~ ' S.^ L ^ L.^ g W.",
"[ S 8 U U x D c x ( ( U m.oXV.C.oX{.W f Q.tX3X:X;X*.<X9X8X3X9X2X4X4X<X@.O.3.3.3.).2.C U.'.#XcXvX|.`.` F.F.H.[ L S.J.! V ^ L.P W.",
"' ~ Y c S A l l l R ~ R U a.f.M.&XbX&X|.uXSX2X-X&.| 2X0X3X<X<XiXkXyX,X#.w.5.P ! B V Z.L.S.8.|.lXbXcX@Xk.K ' [ ' ! ~ ~ D D D.G.!.",
"' ~ U W S S l l c l l z z 9 e ` XX$XcXcX#XlXpX@.| $.%.,X:X-X:X2XpX2X;X*.#.).J.F y l D J.S.K [ '.vXmXvXM.V ~ ) D.P Q H.D.~ ~ ^ 7.",
"H V x c A D c l U S q u u z S ( ` m.+X#X+XXXyXt.| :.3.*.<XZXFXaX=X,X;X;X#.t.Y.^ S U ! S.D.^ ) k.cXvX&XXX] L.[ ~ S.^ D.D.^ _ J P.",
"R S i 9 i c i D S c c t 9 Y ( H C G k.].XXC.N.1X+.x 2.t.>XjXKXjX=X>X,X;X&.0.Q.J.) K S.J.K K.J.` OX#X+Xj._ D.D.^ H.^ Z K ^ _ Z.R.",
"/ A A c U Y S Y A x x c t 9 D G Z C a >.j.` r.5.A q U 3.#. .SXiX@.>X>X,X*.*.r.J.T.J.~ H f D.P.S k.M.v.` ~ _ D.D.~ D.Z h _ D.A.^.",
"/ R H S Y ) ( G A S u v E 0 U c d z x v S K 6.( S S U v | 1XSX<X@.q.-X,X=.&.,X).L.~ Z D ^ P H P _ ~ ~ 6.J.~ ^ D.! _ H.S.G.K.Z./.",
"A Y R A S c V c l x t x S z v 9 c D v x V ( W G l R ( U +.1X6X#.&.-X>X,X*.#.=.2.K C F ! D.^ ! L ~ L ! _ ~ K ! D.D._ L.H.H.T.Z.~.",
"c A R R R w 3 x c c c D y x v x R R x c D R ! S S R U v w.&. .*.*.-X*.$.o.* { <.D.^ K.D.! 2.[._.! ! D.^ P S.P D ^ ^ P ^ T.H.Z.E.",
"R i c S H A 0 z S x Y E r 8 x u V H u r l V W G / [ i 7 +.%.$.o.$.O.:.X.* & { <.L.L.D.D p :.1XrXQ.~ D.S.I I ~ D C K ^ ! G.G.J (.",
"R A S S A U V H H S v x q 9 t 6 y R c @ 8 u y 8 A W S q l b } { :.q.0.:.o.* { <.L H.F.g :.y.-.} u.5.6.E.D.~ J J S / _ ! P L.G.~.",
"R f c R A x G H S / c r p U x 7 l E p r l l 9 9 i 7 l E V W -.0.u.e.0.O...& ..<.h U.L.f $.t.$.:.e.e.u.rX_.L.S.S.~ V ! ^ Q J.P J.",
"P.q 9 c c w w S A Y A l t c l x D S x c D d p i y 3 t c 3 a :.0.q.q.:.} * & %.2.j S.J.%.#.#.o.e.pXsXpXrX5X_.~ Z H.G.H H.H.I h 7.",
"Y i c U / / c i R Y q l y p x c H H U W H S z x z v c c x N.@Xv.-.o.X.* & X.X.2.~.+.#.#.$.$.o.} -.i.5Xu.%.u.9.P H.T.^ D.T.T.^ W.",
"c p i ~ 2.W D 9 c G l c H l u c c S p x H R R U S R G V {.vX*X$XM.} { * | } . } w.#.o.#.#.$.X.a * O $ -.O.X.2.~ ! ) S.S.S.K.D Q.",
"/ U 0 A H Y / l i R H S ~ D y c S c 8 6 q H W U l z l c zXnXzX%XC.f.% } } & . 0.2Xt.o. .%.4.v U I.2.Y ;.<.T H ^ ! K D.H.^ h 3 7.",
"W S S R H _ 2.x l U V H ~ W c U ~ H c c l G A 9 G c 4 _.KXLXFXhXn.2 % } & . { rXqX2X0.#.).L.^ H.U.K Z ^ ' ^ ^ ^ ^ K D.U.L.P I ^.",
"2.d l S H ~ S 8 x Y l H R l u U S c c R H V u 9 W W l tXHXHXHXSXe.O * % $ # x.hXqX2X<X4.J.T.^ ~ L ^ _ ~ J ^ T.H._ ^ D.^ L.T.Z.^.",
"I.G d f z q c q u R c S R 7 8 D D l q S ~ H x 9 x v <.dXAXCXdXfX5.g ;.-.f.b.C.yXaX2X5.j Z K.D.A f L.P.Y ! ^ D.G.^ L.D.C _ L.Z.K.",
"[ H c 0 7 l W c 7 D R l R G 7 c R H c c c c c c x 3 r.ZXAXZXdX<X( D.P.k.B.V.V.yXtX5.K D w ^ I.D K T.( i H ^ I ^ ' I.S.D ^ H.T..X",
"/ q p p @ u E z r p v y S ~ U l d G U c i c R U A h t.8X3XqXiXu.h ~ [ U.k.k.h.c./.' C ! U D J.S.A.A.D 0 0 Z A.G.^ S.D.^ J.D.^ ^.",
"_ 0 p p 6 8 q l x t t t q R [ 2.c z 0 :.i.1.W Y A 4.<X:X=X .q.r.g R ^ D.) Q ) ' H.^ H Y C H ) F G.S.) J.D.K S.T.D.S.D.^ J.J.J !.",
"J.V l z p u u b K V c u 8 3 S K.z 4 e.1Xu.0.;.A S y.,X;X*.$.=.T x J.H.H H V ) I.D.J.D.! V K.I.H ^ T.L._ I.K.D.R.J.I K K P H.~ P.",
"6.S i R R U x U [ H v x x 8 q g 1.jXFXpXrXe.-.a c t.;X-X#.%.3.i x K.L.h D D ! D.^ ~ _ D.K ^ D./ ! T.L.0 K J.D.L.Y.F.P ! I H.D./.",
"_ w y U W / c d U U A Y G d v hXLXPXFXiXdXrXX.} -.$.;X$.#.w.c 9 i R H.S.i D D ^ D.~ ! [ ^ J D C ! D.D.D.! D K _ D.L.D.K ^ S.P /.",
"K.A u A l S S q 9 u A U D 5 jXPXPXLXrXu.dXCX6Xe.q.:.| #.%.b 7 r c S L K.! D w C L.T.~ ~ ^ F.~ B V C D ^ ) ) J D D D.D.K S.P j !.",
"P.A u v 8 x / c r r r p l [.PXPXPXhX$ :.i.iXZX7Xy.e.* $.3.A 9 r S _ ! ^ D._ D d L U.[ l ( I.~ B D D f D ~ ~ L Z F L.~ C T.^ j ^.",
"_ c p x t t i S U c u U S r.FXPXLXsX .&   1XgXiXy.q.-.X.T R U A C _ K._ D _ ! ~ J H.D.S Y C J D._ D V ~ R A ! L D.K.S.Q ~ D.J P.",
"W S u x R u 6 v R ( c 9 U   i.KXPXLXfX& 5XZXpXqXrX:.| ;.A D ( R / ~ F.D.H Z Z _ ^ ' ^ [ A 7 ( D.^ h S _ ! V ^ D.! P D.! 0 D.D.Y.",
"U c c i S x r r U ( t 3 W O e.JXLXLXJXSXDXDXgXiXaXu.{ 3.S l E ! H D G.E.Y.D.~ G.D.L H [ J.H C D ~ ) ~ ^ D.' H ) ^ C P ~ H / P /.",
") l u u d U U x c c 8 7 R a 1XFXKXKXKXJXDXZXgXiXdX6XX.T U p V c q S S..XY.! D.K.L.~ V S _ D.A B [ K.Z I E.H.w w R H S.D.! Y j P.",
"I.l 7 U c c ( R 0 u S c R 2.dXDXDXDXZXgXZXgXiXu.iXiX3.B c U c 0 i ~ H.T.! B C D.F.F.! f D D.D i ~ ( Z T.E.~ R C S D ~ D.V D ! 2.",
"[ S D S c q R / x y S ! [ [ e.jXCXi.} X.6XgXiX0.:.e.v i c S c c 0 ! L.S.H Q P D.D.F.J.~ ^ ^ Z i l K P L.H.L ! V A H C D.~ B K W.",
"U A R R G S E U v v l S H U 3 u.rX{ . . y.dXtX4.d s 8 8 x S G U u Q K K H / D.^ Z.P ) K.L.Y.I.D Y _ ^ J ! ^ ! Y D _ ~ Q _ U 5 P.",
"D 5 3 f c B t O @ w 4 @ 4 5 0 4 U 3.;.-.i.r.W D A 4 @ @ 4 0 f d h ~ P g J L K S.A.g 5 F J K Z.P H D.Z.g g F J D.I J _ g j Z.J J.",
"~.2.;.9.9.2.1.b 1.Q.7.;.2.7.1.2.9.9.Q.Q.9.1.1.7.9.1.1.9.9.7.1.1.5./.[.Q././.~.^.`.^.!.Q.~.W.W./.~./..X!././.P.!./.P./.~.~./.^.[."
};
