/* XPM */
static char *_a5eceb70cab4523cbcfffb6c4ccc14fnEMZREpegsPLx3Iw[] = {
/* columns rows colors chars-per-pixel */
"64 64 177 2 ",
"   c #001B00",
".  c #042D00",
"X  c #082D00",
"o  c #0D3500",
"O  c #0F3F00",
"+  c #143C01",
"@  c #193F08",
"#  c #144300",
"$  c #1A4305",
"%  c #164900",
"&  c #1D4B03",
"*  c #1D450B",
"=  c #1E480B",
"-  c #1F5302",
";  c #1F4810",
":  c #214C07",
">  c #234C0D",
",  c #235304",
"<  c #285706",
"1  c #275903",
"2  c #26520C",
"3  c #2A530E",
"4  c #265A08",
"5  c #2B5C0B",
"6  c #305F0F",
"7  c #224712",
"8  c #254D13",
"9  c #284F14",
"0  c #274C18",
"q  c #2A4F19",
"w  c #265112",
"e  c #2B5414",
"r  c #2E5B14",
"t  c #2D551A",
"y  c #2F591A",
"u  c #315C16",
"i  c #30571C",
"p  c #335C1C",
"a  c #2E610D",
"s  c #31620E",
"d  c #2F6112",
"f  c #336414",
"g  c #366915",
"h  c #396A15",
"j  c #35631B",
"k  c #39641E",
"l  c #376A1A",
"z  c #3B6C1C",
"x  c #3E701D",
"c  c #2F5520",
"v  c #2F5820",
"b  c #355D22",
"n  c #385F23",
"m  c #375E29",
"M  c #385F28",
"N  c #366121",
"B  c #3B6424",
"V  c #3E6B23",
"C  c #3D652A",
"Z  c #3E6929",
"A  c #3E7123",
"S  c #406F1F",
"D  c #41731E",
"F  c #416C25",
"G  c #40662B",
"H  c #436C2C",
"J  c #437424",
"K  c #487727",
"L  c #467925",
"P  c #497B25",
"I  c #45742B",
"U  c #49752D",
"Y  c #46792A",
"T  c #4B7C2C",
"R  c #507E2E",
"E  c #416630",
"W  c #456D32",
"Q  c #496F33",
"!  c #467131",
"~  c #4A7433",
"^  c #4D7C32",
"/  c #4D7539",
"(  c #4E7A39",
")  c #517D35",
"_  c #527B3A",
"`  c #557D42",
"'  c #4E8027",
"]  c #4E802D",
"[  c #51832E",
"{  c #558B2F",
"}  c #4F8133",
"|  c #548533",
" . c #558631",
".. c #508034",
"X. c #528334",
"o. c #538435",
"O. c #548534",
"+. c #558635",
"@. c #568735",
"#. c #548536",
"$. c #568736",
"%. c #538434",
"&. c #588637",
"*. c #578931",
"=. c #578934",
"-. c #578837",
";. c #568935",
":. c #588A33",
">. c #5A8C33",
",. c #5C8F33",
"<. c #588A35",
"1. c #598B36",
"2. c #5A8C35",
"3. c #5A8C37",
"4. c #598B36",
"5. c #57873B",
"6. c #55843A",
"7. c #58833B",
"8. c #58813F",
"9. c #59853C",
"0. c #56893B",
"q. c #588938",
"w. c #598A38",
"e. c #58893A",
"r. c #5B8C3A",
"t. c #5D8D39",
"y. c #5D8F38",
"u. c #5C8D3B",
"i. c #5E8E3A",
"p. c #59893D",
"a. c #5C8D3C",
"s. c #5D8E3E",
"d. c #5B8C3B",
"f. c #5D9036",
"g. c #5F9139",
"h. c #5F913C",
"j. c #5E903D",
"k. c #608F3F",
"l. c #60923B",
"z. c #63953C",
"x. c #64963F",
"c. c #61933E",
"v. c #669B3F",
"b. c #558241",
"n. c #598441",
"m. c #5E8F40",
"M. c #5D8C42",
"N. c #5E9242",
"B. c #638F40",
"V. c #618F44",
"C. c #648E4B",
"Z. c #619241",
"A. c #629341",
"S. c #639442",
"D. c #639443",
"F. c #689746",
"G. c #679942",
"H. c #669946",
"J. c #6B9847",
"K. c #699B45",
"L. c #649549",
"P. c #6B954D",
"I. c #679A4B",
"U. c #689948",
"Y. c #6D9F48",
"T. c #6C9D4C",
"R. c #6D9E4C",
"E. c #6B9C4A",
"W. c #6E9F50",
"Q. c #6FA14C",
"!. c #71A34C",
"~. c #77AA4E",
"^. c #70A150",
"/. c #74A450",
"(. c #72A351",
"). c #7AAB5C",
"_. c #7FB15C",
/* pixels */
"J z ! e * B H u & B B _ 8.p e e H ! $ b U U ) ) y p B B U V e 2 D ,.X.J T P ' [ f $.T $.:.| } V T T Z.X.D =.T /.K | [ T R.r.$.J ",
"J.^ 8 b t p j U U j > N Z ~ H > e B b e I ^ F u H B N e U ) e j D L Z...f K c.x | T T J :.i.$...d J (.T :.l.f D T K P [ X.J -.J ",
"B.7.t * N ! C y B V e > r F B > e ~ N e I H C y k e e u p I e > J $.$.$.J [ l.3.$.d T K P g.T O.[  .f i.3.G.<.T T i.3.D ] $.s.J ",
"F I p o > B y H Z Z Z H j ) B e C u C u Z p e p k / u i b N b N I p.K J | 3.L <. .T 6.r.[ P [ r.[ =.E.S.<.1 L j.f i.Y.g K T S.-.",
"j k Z = N C w H H : > _ I H ~ B = C H e e ) > > H _ H C Z B H p p J R.J j s.l.[ T M.^ K g.>.x.[ ] 5 i.d.s P [ d.[ T <.-.J z  .=.",
"k k N p p H p N H j y H ) u Z t w Z B b Z ~ 8 * H B 9 n p e e > V r j.$.4 k ] [ G.K I K J.3.x c.T g J T  .D | J X.K [ ] K z J L ",
"U k H N p y Z ~ p p e Z / p e t N H b > H H p F e H n t e u p > ~ ..K I e k z 1 :.G.K z <.P J <.<.c.5 ] G.s f g s.=.g.<., $.i.P ",
"k u p * y W N u 8 C e Z Z y C > p H $ Z H + 3 H t e C 9 H _ W + F 6.J I k V 6.z [ !.| T f g z Z.i.K z i.=.J [ d.] | K.Y.D D T T ",
"6.) u G 8 u / e & C * H B H j e p > C H e H e u p p H ~ b Z / p k 6.$.T J U V U <.!.d.K d. ., $.T [ T L.3.| | s.X.g z K.s.[ !.l.",
"9.I > B b b I U & ~ N e ~ k F 2 H ~ H e e ~ H > t H p p 8 $ e Z r D.(., r.) k j [ K.X.J K D.^ T c.X.J r.j.Y.5 X.J.[ ' G.K K Q.D ",
"R ~ $ C ! B C I j U > b I F I k p H ^ F e e ! > N e H G M e > p : T s.D R R T T r.$.L.X.. I N.g x J L.K J ' g f r.' D G.X.K s.J ",
") e W B e = C u V ) y 8 _ 9.k ^ H y u u t > C e e $ + ~ / 9 t > r T f T $.z $.[ p.T T J V k J -.K T J K g.x.T ] G., s <.X.J K S ",
"P.F * B H e H N F I B y p B u 6.~ $ V H H 8 p N e N e ! C * p y r 6.z | k 5 J.[ X.9.z I ^ V $.[ T X.J J  .f.z [ | D | J J Z.$.J ",
"F Z e B Z y C Z ^ 2 p ( ~ H / H H u V V C H e B W W H H @ b H B k I %.r.l J D [ $.z z U U ) X.s.j.x J ] T ' H.S.j.H.G.D I M.s.6 ",
"k e H H b u C N u y p H ~ n.B u H > r k C / ! ! B i e e b B C ~ ^ J T T p.V 5 J T T K $ F.D...V $.O.T - x x T -.=.3.[ c.X.l F T ",
") C + b B 8 H y y w N _ p H e H ^ B k I + 8 p B Z i   N B > C F V j K s.D.p.V J [ i.p.5 <.<.s.V Y I Y T z g ] f x ] s i.Z.z J J ",
"~ e Z B C e Z H Z C > H H e 2 F u V C C w y e N e b H C t > F F V f T K J r.k V T $.$.l D 3.r.T [ S.5 X.9.T r.E.J 5 i.$.J -.z T ",
"^ p e 9 b H C p Z ~ p H Z G N u ^ ^ Z > Z ~ ~ C > p _ > Z > p I k V $.] 5 T Z 4 r O.a.K r.T [ K s <.K J J 6.X.D.s.J T | r.Z.-.f ",
"H p   o 7 N _ r N u / ) N Z > H B k H B e t C H + p Z b ~ e p V V S [ [ U f T I ^ 2 $.[ | P g.i.T s.L.f K 5 z s.$.T T d.K z i.z ",
") Z W C t B C F e = V H p u H & C B H _ b + p Z u H W G b e p 3 k J K J ) 5 J T I I J d.' >.:.!.J X.$.f D.$.z J % i.T J i.[ D g ",
"H H Q E b e I M.N $ e j H = N H e y F H t * B C Z ~ W e C ) Z H 3 ^ ) T J T K J r 6.r.K J R J J 5 K U f -.T X.$.K s. .J [ T z ..",
"p o 7 c p $ H u H p & B ~ N ~ H e H C u $ B / > b Z 8 + e p U 7.3 ) ^ k z $.G.s.f 6.K 5 Z.D.F r j.J 5 j p.z $.T T J h [  . .z ).",
") > @ m Z Z Z b w p p ~ p N N u e p 8 e C ~ G t u H p C $ o B y V ^ $.J X.J | i.J T r.D [ [ J 5 p...U r.U %.r.%.i.P g T T E.<.s.",
"H N b E b p b B Z N Z ~ H H N p H / 9 e H > > Z N G U e b Z ~ p ) X.F.J f J K R T T s.c.h P s.T j I 6.K f R k.T i.' | $.K z z 5 ",
"k H 8 b E p e N > C H H H ~ C > C _ W > p N * b y N Z Z ! B I U 6.$.a D K =.z K J ] J g g $.R.(.J ..I , J R.F.<.g c.j.K T c.T z ",
") B 9 t C N e p e N e u $ H ~ w C H e > b ~ b p y 8 B W H Z p j j D.J D g.<.6.4 f K r.$. .f $.s.z V 6.U J J D.| J f ] ] T s.T 9.",
"^ y t v p + e p * C ~ H e ! B e > e V / Z Z H e e C ! H u ) p Z e V Z.r.[ d.^ I j.=.^ M.O.l j # z J U V u u X.J z h P -.$.r.J X.",
"6.I e / G * u e > G N u e H e Z G > e H ~ e H e B _ ~ : r I B p I ^ f z D r.6.f X.z # I 5 ..O.N...Z.s.B.V J I X.| P L T d.K 5 T ",
"I V o G B t H B p / _ N p t N p U ~ & y H C p $ = y C U u H H u f J | J L.A ^ V j J T ] I J T T T r.Y r.r.Z. .D ] -.Y f ] s.J T ",
"U I ~ p B B e p 8 W ~ F H p t p u H j Z V u B t b w k 9.V p k J S T i.[ j.T J ^ j k T r.L.K [ f J J $.T J K T  .I J Y l z ] L.J ",
"K ^ p ( b N p u C e u u u > e Z p p r F ^ B Z ! / y y V I j k I I Z.K J r.s.T F & j f s.z z ^ I J f G.z 5 J I ..T z a.T ] V $.z ",
"z j t b p H k e F C e t t p N _ I y H ) I 2 C H B = N I V F ) V r X.E.T T T r.T l V T K s.J p., 3.T K A T D.X.I ] Y d.O.K T J x ",
"V H e w t N 2 ~ N p b 9 7 / _ F j k e t N u ~ y + B p G p 3 ~ F J Z.I $.T P <.a.K V T N.z r.M., 3.c.# I ^  . .K c.T z J ] ] [ =.",
"H y p y C B N H p y t b e $ H k F V e e p C ~ N e e b e p ~ e k J T z J -.c. .[ N.6.T x 5 $.p.J D 3.T V I T -.$.J $.g 5 ] P 2.:.",
"H I H N H _ ~ H p Z e C ~ > W Z 2 N 7 C b H _ ~ H p G > e C e k j X...p.} J S.z H.J z x [ J J Y T A Y 6.M.I T ^ I T c.P d.2.K S.",
"e H H u p y j p t t e e B b M > p C b b u / I C u H _ e b p Z y & D.^ j $.z J O.z g x J $.T z I Y J A Y Y z K -...T c.<.:.c.] T ",
"y N I I ~ e & p b B t W 9 t m t ~ ~ e C C U H V N H Z Z b H Z e r K J s.$.5 5 x } T s.6.I ..M.6.Y I s.T J =.J f ] X.z K v.{ L S.",
"Z 2 p j F k > N n p Q G q 7 v t u H t > j k / G W n.e $ w p u H j ^ E.K r.s.l a.N.d.T l k V j M.^ V K  .J ' [ J f z $.J { f.x H.",
"H p Z p N C j F H p b b 9 * q * e ! b @ 8 > e + p ~ Z > j u H k j p.T K T r.J A J d.j.- J J f ^ ^ I 6.Z.T J f z j ^ ^ J J -.-.] ",
"N y u ( p N H H p ( p 8 b Q b + p Z b * b e e > b $ p _ j V F k V ) J E.K , } A a K.j.l Z.$.-.] O % r X.Z.d.<.=.T r J X.x S.T z ",
"C.e > u u e 2 V e H p C ; b w N k Z e p H e p t t $ * p # k I j u J $.J X.T ^ Y , [ T 0.} 5 ] j.K z K X.f K J a g.<.g G.[ x j j ",
"N e N N W ~ B u ~ ~ 2 u 8 b p p Z H C ~ H k p t t Z C p p B H j I l J J J r.z N.).g 5 a.-.5 z K  .=.H.J z T  .J x.l.K | G.J...! ",
"t y y ( b.Z H * p Z u p I e t b b G e p H U ~ Z Z H j N ) H p H r $.Z.-.T a.Y K a.S.D.j...f , f z f K f f ^ r.T z ] T =.K c.I ~ ",
"Z C $ r Z N ( u e ~ Z V U Z 8 b b b @ * 3 k W G e p k 3 j B H ~ I S J $.[ f Y Y 5 a.j.z z z V z E.T T T T $.x T T V r. .' 5 $ k ",
"H H B ) Z 7.~ b p Z p V U ~ p W ~ ! N B u U N $ G t > 3 j p B p ) p.^ s.O.4 l N.} ] s.J T X.R -.L.z f ] [ T K K T J r.s.c.D $.L.",
"H 2 r k Z I H $ e H r I I p e Z N p y ~ F p e 9 ` H H H ~ H Z w r ^ j ^ d A J j.z z T z T E.K T J T ^ J h ' E.| X.K -.J s.c.T | ",
"C.F 3 u N > N e p ~ p p ~ * * H p p > N U F M * 9 M Z H F e > I V f V ..-.z d T Y d r J g -.X.l < s.M.V J T P c.K r.-.z K j.P h ",
"~ F Z e > 8 ~ B + H H u I H + C / I u Z B p p b t $ * 2 k u H k T -.D.T K z O.a.O.T T l , ^ L.d J L.I r I K T P T Z.T z X.$.!.~.",
"U 2 w b o t ~ b 0 b b 8 N ~ C e e N N y # p ~ p Z e e H k u k k 3 K J W.Y ^ ] T (.T f T I f D.T [ P V , , g ] 3.T K s.J O.T [ [ ",
") > b t * $ 9 i i 9 7 t 2 ~ _ n.e p N B H B ~ H p Z F F H C _ B 3 U T X.T J T J r.J J V k l } f c.' Y 6.O.K T c.[ $. .T r.M.J $.",
"6.p t p t p e C H F b t * # r 8.F C y ~ N e H N j n.H U p e H Z y p.r.J J j T L.X.Z.) T f M.L.z K c.D.^ I. .K (.X.J J J z s.K z ",
") F e ~ C C t G 8.p G = N > r ) H p p p w e ! > H H I H H u B y w D.p.5 I l J O.J K T r.z T ..Y J N.N.% A N.O.-.L.r.J K P -.r.r.",
"^ 2 > Z G / B e H G t ~ V p p e N N > H B t ~ H u e w w _ ~ N = p V s.| 4 I k ..$.J J T [ g A d I ..r.p.I l A $.Y N.0.z ' 2.T N.",
"M.p t C u N p e > t C N k V Z p b p 2 H B > b H Z B H e N e = 8 N k A Z.V l 5 f Z.L.I T K r.I d j l j T ^ ..z z x  . .x =.g z Y ",
"n.j 7 C * b ( p 8 9 * p t ! _ p B p B / p + e N V p e t B N > 8 j 6.J T ^ 6.V 5 J c.$.r T D.T d F l r V I I K x g j.T 5 H.' J d.",
"~ y b b 7 8 8 C G b 9 Q N b G b e $ e b B H ~ 7.V e y p N ! b B p ..p...f 6.J ] z k.^ k I j l ..^ F k T I r K J $.$.T J } Y J x ",
"C Z w e ~ e * C Z _ p > u p t C 7 @ * i * p H p * b H u p Z ~ ~ I I 6.r.l I f  .J X.T ) j # 6...T r f ^ J j ^  .J T -.Y & 6.a.K ",
"N y Z w H e 0 0 Z ~ e $ _ H o 9 t t 0 E u N W C $ C H G B e W Z I l r.Z.M...I $.| J V 6.M.V l V I ) T T r.X.z ^ ..d A Y A A T D.",
"H j t w > H C i p C + + H U > * 9 b C m + B t t b e ~ ~ Z u p V > V T _.I.I $.a.r.K l f ^ 5.r u ^ M.z J J.r.4 , J J X.$.I V l l ",
"M.p + ~ p p ~ Q > t Z C u ) ~ 9 b 0 m b b N * p B 8 W C e H V > r I | G.z r f ] | r.F f z p.V p I ^ 5 E.K.K T k V f K -.f j ..& ",
"_ N Z p N > ~ Q t e N F ^ 8.N C t t C Z H N t 8 e t t t M B u C & T i.=.A I J -.[ <.r.J K T r r 4 I J i.i.z J j f I f ] T 5 6.T ",
"y j I H C B C E b B y H V B 8 C p p p p 8 H ` Z C p @ * t N H B > V z x A V r.z T J ^ p.D.L.L.j I J ] h T T J J r ^ J z p.f & J ",
"! p $ B Z N W X * p t o u e t w e p p e e e H W C 8 0 @ 9 n N N Z ) ..r ^ J T $.3.h , J V F T ^ I 0.=.a s K J Z.-.z 9.r z ) -.J ",
"( e + ~ N Z 7 X * ` b = u B e y G C Z V H p > b W e c C / e 9 e p ^ L.I 0.L.J c.| <.| T 6.J J j.} } H.' d.p.z J r.z L.6...$.$.| "
};
