/* XPM */
static char *result[] = {
/* columns rows colors chars-per-pixel */
"64 64 255 2 ",
"   c #000000",
".  c #070008",
"X  c #140A09",
"o  c #000218",
"O  c #250100",
"+  c #320B09",
"@  c #192010",
"#  c #312A16",
"$  c #080E2D",
"%  c #2F152B",
"&  c #0E2A32",
"*  c #2F2B2E",
"=  c #362A35",
"-  c #373538",
";  c #450200",
":  c #52110B",
">  c #6F0C09",
",  c #502E0E",
"<  c #6D2B0E",
"1  c #4E142E",
"2  c #6C082F",
"3  c #50322A",
"4  c #462A39",
"5  c #473839",
"6  c #573838",
"7  c #663737",
"8  c #703330",
"9  c #2E510B",
"0  c #364B38",
"q  c #4E4709",
"w  c #744F0D",
"e  c #6E661F",
"r  c #534D2D",
"t  c #484639",
"y  c #594939",
"u  c #674639",
"i  c #764839",
"p  c #6F5332",
"a  c #4A7737",
"s  c #736834",
"d  c #06074C",
"f  c #0E314E",
"g  c #32324C",
"h  c #383A48",
"j  c #2B2B5C",
"k  c #473946",
"l  c #573946",
"z  c #523554",
"x  c #6E3849",
"c  c #593262",
"v  c #0A4652",
"b  c #394647",
"n  c #2A4A53",
"m  c #394856",
"M  c #236354",
"N  c #0E4764",
"B  c #334D6C",
"V  c #396A71",
"C  c #494648",
"Z  c #574849",
"A  c #495849",
"S  c #57574B",
"D  c #474958",
"F  c #574A57",
"G  c #495658",
"H  c #595759",
"J  c #684747",
"K  c #764A49",
"L  c #69564A",
"P  c #78584A",
"I  c #674B56",
"U  c #754957",
"Y  c #675758",
"T  c #785859",
"R  c #506D4D",
"E  c #6D6C47",
"W  c #766549",
"Q  c #6A655A",
"!  c #776659",
"~  c #79755A",
"^  c #4F4B69",
"/  c #4A5664",
"(  c #565866",
")  c #585977",
"_  c #685966",
"`  c #785967",
"'  c #6C5270",
"]  c #5A6669",
"[  c #4A6973",
"{  c #566876",
"}  c #577577",
"|  c #696669",
" . c #796768",
".. c #6C7568",
"X. c #79766A",
"o. c #686976",
"O. c #776A75",
"+. c #69767A",
"@. c #797777",
"#. c #9E3216",
"$. c #8A3931",
"%. c #C23F00",
"&. c #8C5212",
"*. c #B0480E",
"=. c #8F6C08",
"-. c #AD7209",
";. c #864837",
":. c #914E32",
">. c #B24F32",
",. c #906D35",
"<. c #AC6C32",
"1. c #CC5916",
"2. c #88364F",
"3. c #8E3C65",
"4. c #854947",
"5. c #934F4F",
"6. c #855649",
"7. c #865A56",
"8. c #975958",
"9. c #A9544F",
"0. c #85684B",
"q. c #976948",
"w. c #87764B",
"e. c #997547",
"r. c #876758",
"t. c #976A5A",
"y. c #867558",
"u. c #96775A",
"i. c #AC6F50",
"p. c #875868",
"a. c #91556A",
"s. c #A7596D",
"d. c #886967",
"f. c #956A68",
"g. c #88786A",
"h. c #977568",
"j. c #876977",
"k. c #956976",
"l. c #877778",
"z. c #987778",
"x. c #A46A68",
"c. c #B16E6E",
"v. c #A77969",
"b. c #A57876",
"n. c #B87977",
"m. c #D7595E",
"M. c #CB7154",
"N. c #C8736F",
"B. c #5D8925",
"V. c #3F825F",
"C. c #5D8A59",
"Z. c #728A54",
"A. c #758A72",
"S. c #978718",
"D. c #B29106",
"F. c #948D36",
"G. c #AC8B35",
"H. c #C98417",
"J. c #8F8851",
"K. c #96865B",
"L. c #AE8E54",
"P. c #AEAE4F",
"I. c #8B876A",
"U. c #958768",
"Y. c #898579",
"T. c #998779",
"R. c #989671",
"E. c #A7876A",
"W. c #B58F6A",
"Q. c #A78778",
"!. c #B68978",
"~. c #A89578",
"^. c #B59775",
"/. c #93A578",
"(. c #B2A771",
"). c #CB8F52",
"_. c #D59F5D",
"`. c #CD8F72",
"'. c #CAB170",
"]. c #D6C868",
"[. c #356689",
"{. c #5F5E8A",
"}. c #567189",
"|. c #676B84",
" X c #776B85",
".X c #697886",
"XX c #797985",
"oX c #747897",
"OX c #877A85",
"+X c #8E728E",
"@X c #977786",
"#X c #886E96",
"$X c #A77885",
"%X c #B2788E",
"&X c #D27185",
"*X c #008A89",
"=X c #528A91",
"-X c #77848B",
";X c #6D8B91",
":X c #798898",
">X c #6C8DA4",
",X c #679CA5",
"<X c #7896A9",
"1X c #888688",
"2X c #978987",
"3X c #8A9687",
"4X c #979589",
"5X c #8A8994",
"6X c #968A96",
"7X c #8A9596",
"8X c #989699",
"9X c #A68887",
"0X c #B68787",
"qX c #A89788",
"wX c #B59789",
"eX c #AC8C96",
"rX c #A69897",
"tX c #B99896",
"yX c #95A396",
"uX c #B0A78B",
"iX c #A9A59A",
"pX c #B7A598",
"aX c #8D93A7",
"sX c #979AA5",
"dX c #A79AA5",
"fX c #B398A7",
"gX c #9CA7AC",
"hX c #91ADB1",
"jX c #A7A7A9",
"kX c #B6A7A8",
"lX c #BAB4AC",
"zX c #ADAEB2",
"xX c #BAB5B8",
"cX c #CC8E8E",
"vX c #C79688",
"bX c #C79996",
"nX c #E79487",
"mX c #C6A698",
"MX c #CCB093",
"NX c #CA96A8",
"BX c #C5A8A7",
"VX c #C3B5A8",
"CX c #CFB0AF",
"ZX c #C5B8B7",
"AX c #E8AFA8",
"SX c #DBCE99",
"DX c #D0C3B0",
"FX c #98B6C4",
"GX c #B0B7C5",
"HX c #C5BAC3",
"JX c #ABC7CB",
"KX c #C7C4C7",
"LX c #D3D0CF",
"PX c #E8D6D3",
"IX c #E9E7E9",
/* pixels */
"K.4XA.(.VXN.v.@.4XY.dXtXe.L.N.uXu.iXdXuXmXiX!.2XOX9XMXX.z.T.T.h.sXl.7.O.X.2XrX@Xj T.4XF X.f.` @.h.,.l.I.kXzX5X7.+X<Xg.T | _ r.W ",
"J.Y.+.+.I 6.k.@.lX6X+.7XW.).x.qXQ.2X .uXw.P 9.d.4XQ.@.( lX.XO.rX6X..0Xb.f.eXqXz.^ ( Y 2XI.w.bXDXI.F.| U.pXwXv.5. .;X| @.U.7Xu 0.",
"..eXkX/ 2X1X7.! sXzXOXhX1XrX;X1XOX) kXZX!.M.ZXjXj.kXl.1X4X=X` 2XY.~.| 2XqXp._ o.g _ b.v.1XQ cXxXW U._ t.mX~.b.9Xr.OX4XyXI.+.XX% ",
"2Xh.1XqXgXgXwXl.X.@.jXaXoX8XyX2X2X>XzX8XX.q.tX;Xz.O.o.R.;XX.;. .@.F 9Xl.` ) 1X1X@.Y cXkX] ,.! g.9Xz.P y.rXrX( I.q.Y (.A Z @..X8X",
"wXpXz.K.'.dXZXzX7X1XY.5X1X` +.b.pX.Xz OX4Xl.j.Y.I.OXg.K.hX] b.O.* O.2Xq.r.A.z.@.f.p.fXzXA.1XC.Z.b.6X:Xl.E.X.}.@.zX|.r ] u.@X7XsX",
"8XE.ZXiXK.' 8XzXVXjXW rX8Xs _ g.8X..O.z.T.pXpX3XKXjXxX4XO.o.sX9XT ) Q.E.lXDX^.>X X X+.4X| I.DXP.c.c.| 9X(.@.I.u.<XOX, f.Z +XL * ",
"6XvXzXjXlX2X:XO.p XXhXI.4XiXU.;X5X/ 7X8Xl.0.h.8XY.-X:Xz.8X5Xg.w.T.rXv.h.uXuXwXXX .eX6XpXL ZX~.(.g.z.W.k.v.U.G.`.o.F b.wX{ { ~ ] ",
"Y.VXkXLXlX7X>XoXS 3XJXqXT.jXh.}.zXuXJ F OX4Xt , T.Y.6 nX6XzXQ.s ~ 8XW.1XR.4XY.$ f.i.fXCX7.CXd.! ~.pXrXpXBX9X9.k.[.}.jXqX1X@.4XkX",
"(.uXjXjXz.| c.e.@.1XyX(.U.&.).A.jXpX! P.E.7X}.7XQ.wXl.%X3XSXdXpX,.X.mX<X} Y H z.!.Y.rXbXz.vX2X) 4XY.l.lX8Xx x.eX{.XX.Xb.0X,.(.pX",
"kXjX+.XX8XwXvX^.g.t.6.(.VXpXqXo.eXN.b.].(.aXsX@.,.U.z.s.4XSXtXHX6X..2XgX8Xg.4Xy.U.uXR.dXz.uX1XH 4X8XQ | 0.;.k.(...m T.5.8.u.=.u.",
" .Q Y.gXiX2X8XY.0.L.v.@XXXp.u.}.0X`.tXeXvXl.@./ W.S k.NXsXp.j.pXl.& h.XXg.u.lXz.g.C.| }.2XQ.h.OXrX4.o.o.yXQ.D C.A.gXx.eX! T k.g.",
"W.`.}.}.O.Y @.qX4XX.1XO.d.xXoX XbXt.8XO.{ dXg.,X4Xt.}.7XLXzXU l.y.o.v.h.P G.uXFXjXB o.OXY Q.0XaXzXg.O.|. .4X .jXiXdX$X6Xh J i o.",
"Q.v.>Xv.n.+.D 2XjX] ) ^ sXLX-X= X.h.Y 0XeXKX:XGXuXz.hXaXcXPX0XI Y.lXn.x.2X'.qXkXFX=XXX1Xf.;.2X<X XCX+XO.h.F k.vXe.H 9XXX4 K v.~ ",
"f.i { W.t.XX+XeXHXp.6X@.l.KXJXXXq.ZXiXkXeX] <X%Xt.]  X6X&XAXbXqXl.Y.vX9X[ 1 Q.2X}.,XO |.iX: T ;Xr.nXa.dXKX}.@XfXe.) 0X! 8Xj.(.'.",
"W.`.5XiXK.5XfXn.9X` 9X2X8 hXFX5Xg.!.rXjXl.i.7X.Xl.2X6 tXBX$.8XzX2.Q.dX XH A.1XI .X-X% hX-Xt.b.B mX`.t.eX7X;XXX1XE. X+X9XBX@XP G.",
"i.vX}.l.-.f.h.f.sXb.!.2X=XhXGX5X  N.N.( f.M.J $ 5XDXOXh.Z i.7XgX`.DX-X;X-XuX(.r.G g.xXLXA.8X1XO 2XbXi ,.wX:X| sXqXO.HX| e.^.l.c.",
"9.f.=XXXi.n.tX6XhX@XwXVX;XhXDX6XH CXvXqX}.8Xg.C aX2X>XfXr.v.^.@.CX$X5XsXXXu.].vXt.6 rXPX4XhXhXt.* l _ 4X].(.T ;XA.$ h.L T.Y.gXN.",
"c.d.G 4XpX2XGXk.( 7XI.z.k.<X`.T.A.R.kXU.' oXQ.E.6XO.FXHXy !.v.B gXqXo.sXNXU mXMX&.! 2XY._ +.3X$X` 7 k .XyXIXgXN S t A 1X1X] 4XrX",
"`.l.o.3X| +X$X| .XFXy b.6X] lXqXqX1XdX2X%X<X1XqX2Xb 7XX.  2X4X^ oXQ + CXLX#X7XwXHX@X= @.rXV.kX9.k.` 5 r L DXLXS :.<.yXJXT.^ 8XxX",
"n.mX' F 6XGX$X  +.sX1XY z / E.lXBXz jXMXeXG @. .6 C { !.pXl.2XqX.XrXcXnXDX5X-X! 9XT   r.bXl.&Xm. .z ).(.u 1XiX..j.T zXFXL.7.o.~.",
"/.kX/.~ c.+XqXlX2X% ..L o.1XE. .,.h.sXSX~ _ @XY.r r.:.0XiXOX+.7Xv.PXAXBXaXoXl.W i.f.D i.t.,.&Xm.v.` M._.aXeXQ.= j.6 @.5XP i.g.MX",
"lXuXiXQ.%Xd.VX4Xz.' ! v.sXr.tX X_.!. X{.9XkX@XKXvXM.c.1.t.aX^ _ i.i.rX6X( |.k.V !.vXp CXiX8XBXcXkXC M.i.& & s ~ T 2X@.: y.e.e 8X",
"jXiXt.mXVXMXR.L 9XX.g.tXl.h. X' `.U.2.oX5X2Xh.PXPXcX$.i.Q.OXp.@.:Xr T.A.( ) x.5Xd.!.X.T VXuXu.`. XrXi.i 2XO.X...1X6X4XJ.S C p A ",
"| l.E.b.Y.`.%Xt.tXbXj.XX^ [ o.P.AXBXJ |.7Xe.y.LXZXk.2XfXzXX.sXB b 7XIXl.>.s.d.g.[.zXrX_ z.S.e.wXf.kXiXh.!.d.8XjXpXX.R.'.Y.} w y ",
"..!.x.%  .d.OX:X6Xb. XhXR.C.R _.vXxXb.| <Xz.jX9X .0XkXIX7Xd N d.g.yXIXIXMXcXl Q aX4XSXz.k.MXuXtX` K KXSXH.u.o.d.T.r.~ &.E d.$.e.",
"= !.z.B l.6.^.I.( ] @X6XMX/...q.L.o.Z dXk.OXhXN  .j.X.DXNXq.} nX2X} CXpX .A.o.H OX~ w.U Z ~.I.kXY x.h.W W.~.L.~ l p ,.F.G.x 5 uX",
"8X6Xj 5XkXgXMXE.;X} K F sXiXh.7Xo.| 3X9X%XHXXXD * 6XpX.XcX].~.P.s g.qXb.E.-X* ,.k.j D I ^ w lXKXN.c.A M Y d.wX-Xj T.'.,.i.ZX..rX",
"D v.9X}.1X}.r gXaX{ p ` | m _.yXJXkXR.9XNXdXF.P.,.pX5Xh BXL.s +.y r  X@XL.I.W.(.CX$X{ ' k.`.kXyX$XN.O.~ % ~ qX[.B OX~.g 4.CXT.< ",
"' BXl.C , G O.;XaX#Xz f.` 4XVXjXLXGXZ H U OX(.].=.4 6X Xv.v.z.V : 8 rXn.t.;X1X` @X!.T aXaXJXmX8Xf.$XGXq.w ( Z |.1X) @.@.O.p T.z.",
"#XKX4XU.VXrX2X-X+.g ) f.T l.rX:XzXf.g l.x oX| <.<.H IXsX<.T. .y -.&X%XSXmX>Xf pXg.4.f.oX}.<XqXOXh.z.' i.h.}.I.,.y K.k iXwX<.X.T ",
"T.GX.X,.PXCXc.OX= F _ L 7.XX5X7XtX8.f xXHX}.V K.!.7XPX2X@ _ z S `.&X%XCXT.B } kXQ xXBX6.A.,X4X1 aX<Xk.J }.o.R.t.(.].e oXcX-.J.g.",
"2XrX! K.!.wXv. .( kXj x.u.R.X.l. .F Z H 5X9X}.tX@X=X8X_ #XoX/ Z Y 3.s.Y. .3 I.C % VX9Xv.qX=XX.O..X}.XXE H ^ y.L U.K.t oX&X%.BXPX",
"L ! P.r._ K.g.T h.Q.f.k.w.MXMXL d.z.PXl.X j.}.rXdXi.tX@.` {.f ! tXeX8.Z  .cXv.n ;X-X7 s.j.( j.I d.j G F.A #X_ U k W ( +.n.:.2X6X",
"O.k.P.,.l.1XS @.{ b.eX9XY 2XQ.x.4.P h.Z 6 $X;Xv %XN.rXuXzX^ @.8XO U.^.qXj.kX2Xo.}.;XoXOX`  X' 8 k.2X.XA.& ` x.` I L.@.+.t.:., i ",
"%X .E ,.k.V t.b.=X9XtXQ.@.G a.NX8.l P r.K $XXXd.k.%X^.R.u.c j.sXo S ~.iX@.K < l.tXz.;XV +X+X^ &X$XpX5 5XsX; n.rX^ r.[ g.~ 0 G.G.",
"eX0XL w.l.t n.6Xk c.k.@XF rXMX!.+ K Q.X.u.j.F @Xd.+X4X=.Y.fX2 f OXT C H D 5XF 0XBXP 1X=X;X2XOX+XI Y . lXHXk OX8XOX5XY ).R.& G.w.",
"_ a.l.rX+XP._.` .Xj.' #XO.5Xg.p.+XQ.x._ k.a.| xX9X|.6Xg.A.MXi.a.F u ~ f z gX1X8.d.j.7 n m ( |.m (  .1 HXlX' eXv.O.sXkXP # = <.!.",
"[ Y dXo.-XI.G...( 7.+X7X'.M.d.j.@X6.1 o. XcXb.qXQ.eXj.8Xf.D.'.m.3.r.^.| D ) h : J j.| B O.8X$X5.{  .% n.x.N -XQ.p.z.kXn , x u Q.",
"<X7X5X  m ,.w 1XY.6XF ] ,.1.q.Y j.T p  .[ x.6X1XQ.$.c OXh.h.u.tX9.>.! O.k H G s.x p./ n rXCX&.K +.J sXbX#.r.] Q _ OXNXl :.>.7 - ",
"u l.Q - C I.g zXkXxXg F <.<.8 I.! 6 s n.@XK dX-Xr.3  X' Y k X o.j.z { 7.J g.:.eXFXeXf ^ @.~ r.p.n O ZXGXx i.w E 3 ` c.8.9.c.< + ",
"6 6.I v 4 mXo.7XvXx.>.8.u.h.- S :.T Z s.j.Y fXO.* 4 # .X@.< :.y | m @X%X1Xh.> _ aX1XT l B I 8.0XJ r.Q.F b u 8.R L 8.l.p T.iXT.I ",
"7 & _ H V J 3 Z 6.F M.i.f.8.  m y.-XZ d._ $ a R 6 P h.A.d.T i.x w.U.c.%X1Xw =.P B % - L x.8 _ f.;.g.!.6.} o.j.m / j.c.G.I.{ KXBX",
"<.&.I W }.6X2X; y.Q z.P 7 v.R.0 OX[ F 2Xl.F Z.;XH ! !., i U 7.f.5XX.$.T 6 u.~ e.6 & k 7.;.< | U ; Q.~.h.XX.X|.n  X^ f.i.8 }.BXBX",
"nX-.= 3 @.sX6XrX1XX.V n ( 1X/.R l.- 6XIXrX5 C.I.5X| b.8.2.c N ^ a.x z.z.< ;.0 g.d.m K 7.f k Z m A F t ` m : l w.Z { +X#.u C &.1 ",
"cXk._ ;.r.a.z.+.| U.o.@XP d Z.R _ u  XHXmX4.| :.f.8XpX6.6 @Xo./ s.9.i.7.b e.Z OXn.-X6 z.k.Q L P E.0.8 5.$.l l 0.Y h Q *.3 % T.^ ",
";.l O.0X:.l +X` l.uXX.F u 4 ~ Q F J z j p.' Y.@.6 A.7Xg.k rXQ 3X+.H ..# J.I.Y _ : o.J j.z.H g.z.Q.h. .` NX Xg , ] L D.<.l m OX@X",
"O , O.tX` # #X&Xx.C X.zX8XQ.1XhX:Xf 7 O.r   I .Xk I L O C & q Z.b I X., s s E B * 5 C 6 $.O zXqX=.L - = 2XY $ G - Q U.T K 4 _ l.",
"B ^ L | t 3 m &X9.C C 3XjXcXT *X}.{.u h.v.J 7 G O.r.T R R 1 r B.r m x.W.9 Y.Y.f 8 4._ J :.L lX1Xm S.:.K % 4 l $ @ m x ^ 7 8.! , ",
"<Xg 5  .6 P Y 8.8  .| A.I.5.8 : r.n.;.d.tXoX2XL r 7 o.] a r :.e.Q @.bXQ.q 1X .$ I 5.5 $ u * 3 { +.,.#.L h W ~ 8.H j.9.z x x. .7 ",
"`   7.c.$ ,.e.- | ( 5XiXy.> L d.3 ,.T k.tXX.8XqXX.3 J f v 0 :.n.6 T x.t.0 D Z F I s.P @ 3 9XX.o r q.r 0 o W y.8.F x.%.w h r. .0.",
"k = 4.8.d , e 0.2X1X|..X8X! &.& Y L h p.q.* X.U.S r.( x %.2 - X.<.u b.x.= Q 1Xh : v.y.T D g.E % | d.p R g u.L.@ v ' m.K.t 6 6., ",
"0.i.O./ ` w s ,.- 6 d <XrXh.u.H  .X.! T s.N gXqX#.T ^ N.nX6.% ~.q.l k k p.7.P :.: r I._ o X t - Y.x.r.X.  E C 3 l {.s.^...f  .Q.",
"K.G.+.=X6.>.N.p . * o.o.| ;.E.Q.J | l.o.) z [ 8.m.# 3.cXKX~.D.S b.z.  ) 7X@.W >.$.y a p I _ 0.y +.0  .OX$ f & $.>.B l U 0 j -Xr.",
"5.1 i.yX>.9.$.# $ I dX) h y :.: a.M. .( * f $ T.K A L.P =Xl.G.+ z.z.k m $ k.z.u 8 9.E e L Y P 9.K.I.I 7 4 I <.f.j.q x g & & / O.",
"j.b.9.mX8.#.< r n k * :XH , 0.* 2X`.h.c.O f XX8X& 7XpXw.& _ Q i #.i I @ >.2.H 8 ; :.8 q <.,.1 7 e.u.Z < 2 E <.q. X6.6 g - % G O.",
"eXmX> 0Xh.i.).E / H / C  .6X( % k.`.y.;.K 8 ` k r t 4XlX& I Z J t.cXs.2XnX< $ 4 $.4.l T e.,.4 # r t O < R m #.:.| P t 8 + H A.6 ",
"iXqXU pX! R Q y $ - L t qXGX' 7 S R.K.T.z.h.' # Z.,.z.h.  % Y 5 H &XN.X.o.XX5 | _ K l g p w o l S & ] ,.F.A u w u 4 5 3 < E s < ",
"iXjX5X .Y - f 1XL   a.8.S 1XI d. .7X1X5 D ] +X-X,X-.J 4.< $.J F = b.$XJ n .XD D * < l N 6 0.;.T.] - 5Xu.r @.R.1X;.6.o t u L 6 &.",
" XH - ..!   ] sXH @ o.%X  | jXh F z.H $ v _ eX,X=X].,.f.j.5.gX4XH j.p.x ~ ( $ b + 7 D m Y.Q.9.f.  o n , 3 S @ Q 7.K 3 3 3 C u q.",
"l.t < A.2X  ( +X_ & 7.s.k 8XBXX h C v ; $.l ` +.M ,.,._  XOXzXrX2XOXI 4.L.F.$ r i i 3 > 1Xl.x x u G b h 0 m G 1 J O OX6X1 8XI.%.",
"4.X y y.c.O.h +Xk & ` 8 $ 2X8.9 a G v `.`.> > x J.t    .( @.sX2X: f ( z.W e C U ,.L.;.$.E.K.< O p C @.H * m Q S., S qX Xc l.x.%.",
"6 - f z.mX( ( 5 6 %XJ Z S ~ 8.~ a V ^ BXAX5.$.+ W , t E O :X<XF = J = 0 r L % Y d.MX,.$.i I.6X| u g -XY . # q F.i U A.k * =.>.>.",
"| +.d | wX  ; O 6Xz.l / | | =  .a a x > 8.^.6.p. .S o y F _ C S 7 L 0 < q.0.B.0 a.bXp I y 5XKXd.* o 1X| o Z p z 2.8 G b # =.< $ ",
"8.f p...=..X>Xw.qXOXt   % P & ] ~ ,.7.6X4Xp @ F Z ( @.T H ) c   5.3.w.0.8 E R ;.c.:.wXxXt Y.P : Z 3 ..W -.XXl.x 2.6 * 5 Q S S ] "
};
